<?xml version="1.0" encoding="utf-8"?>
<!-- Generator: Adobe Illustrator 18.1.1, SVG Export Plug-In . SVG Version: 6.00 Build 0)  -->
<svg version="1.0" xmlns="http://www.w3.org/2000/svg" xmlns:xlink="http://www.w3.org/1999/xlink" x="0px" y="0px"
	 viewBox="0 0 158 36" enable-background="new 0 0 158 36" xml:space="preserve">
<g id="Layer_2">
	<g>
		<path fill="#FFFFFF" d="M72.7,26.5h5.6L69.6,9.9c-0.5-0.8-0.9-1.1-2-1.1h-4.8l-9.2,17.7h5.6l1.6-3.3h10.3L72.7,26.5z M118.6,26.5
			h5.5l-8.7-16.5c-0.5-0.8-0.9-1.1-2-1.1h-4.8l-9.2,17.7h5.6l1.6-3.3H117L118.6,26.5z M138.3,22.1c0.2,0.6,1,1.1,1.8,1.1h5.3
			l3.9-10.4l3.7,13.7h4.9l-4.1-15.7c-0.4-1.6-1.3-2-2.8-2H146l-3.7,10.3l-2.9-8.8c-0.4-1.1-1.1-1.6-2.3-1.6h-5.8l-4.8,17.7h5
			l3.6-13.7L138.3,22.1z M115.2,19.6h-6.8l3.5-7.1L115.2,19.6z M69.3,19.6h-6.8l3.5-7.1L69.3,19.6z M49.7,26.5l2.1-4.1H39.5V8.8
			h-5.3v17.7H49.7z M86.3,26.5h5.1V12.9l8.9-0.6V8.8H77.5v3.5l8.9,0.6V26.5z"/>
		<g>
			<path fill="#ED1650" d="M17.8,8L7.1,4.4C6,4,5.4,3.4,5.4,2.3V0.3c0-0.5,0.4-0.3,0.9-0.1c3.6,1.3,14.9,5.1,15.9,5.5
				c0.1,0,0.2,0.1,0.3,0.1c0.3,0.2,0,0.6-1.2,1C21.1,6.9,19.7,7.4,17.8,8 M17.9,14.4c1.8-0.6,3.2-1.1,3.4-1.2c1.3-0.5,1.6-0.9,1-1.1
				c0,0,0.1,0,0.1,0c-0.1,0-0.1,0-0.2-0.1c-0.2-0.1-1.1-0.4-2.3-0.8c-1.5,0.5-3.5,1.2-5.6,1.9L17.9,14.4z M0,13.6
				c0,0.5,0.2,0.5,0.8,0.4c0.2-0.1,0.6-0.2,1.1-0.4c0.1,0,0.2-0.1,0.4-0.1l0,0c0.8-0.3,1.8-0.6,2.9-1c-1.9-0.7-3.6-1.2-4.5-1.6
				c-0.4-0.2-0.6,0-0.6,0.4v1.8V13.6z M1.7,8.7l7,2.5c1.8-0.6,3.8-1.3,5.6-1.9C9.1,7.4,2.9,5.3,0.9,4.6C0.4,4.4,0,4.2,0,4.7v1.9
				C0,7.8,0.6,8.3,1.7,8.7"/>
			<path fill="#FFFFFF" d="M22,16.8L5.4,22.6v-3.9c0,0,15.1-5.2,15.9-5.5c1.3-0.5,1.6-0.9,1-1.1c0.6,0.2,0.6,0.3,0.6,2
				C22.9,15.9,22.8,16.5,22,16.8 M9.2,31.5c0-0.8,0.1-1.5-0.7-1.2l-3.2,1.1v3.8l3-1c0.8-0.3,0.8-0.8,0.8-1.6V31.5z M14.3,23.4
				c0-0.8,0.1-1.5-0.7-1.2l-8.2,2.9v3.8l8-2.8c0.8-0.3,0.8-0.8,0.8-1.6V23.4z M22.3,5.7c0.6,0.2,0.4,0.7-1,1.1
				c-0.7,0.2-14.1,4.9-19.1,6.6l0,0c-0.1,0-0.3,0.1-0.4,0.1C1.4,13.7,1,13.9,0.8,14C0.2,14.1,0,14.1,0,13.6c0,0.3,0,0.9,0.5,1.1
				l4.4,1.5c0,0,0.3,0.1,0.6,0C5.9,16,22,10.4,22,10.4c0.8-0.3,0.8-0.9,0.8-2.8C22.9,6,22.9,5.9,22.3,5.7"/>
		</g>
	</g>
</g>
<g id="Layer_3">
</g>
<g id="Layer_4">
</g>
</svg>
