<?xml version="1.0" encoding="utf-8"?>
<!-- Generator: Adobe Illustrator 18.1.1, SVG Export Plug-In . SVG Version: 6.00 Build 0)  -->
<svg version="1.0" id="Capa_1" xmlns="http://www.w3.org/2000/svg" xmlns:xlink="http://www.w3.org/1999/xlink" x="0px" y="0px"
	 viewBox="0 0 48 48" enable-background="new 0 0 48 48" xml:space="preserve">
<g>
	<path fill="#E72369" d="M46.8,47.8H1.2c-0.6,0-1-0.4-1-1V1.2c0-0.6,0.4-1,1-1h45.6c0.6,0,1,0.4,1,1v45.6
		C47.8,47.4,47.4,47.8,46.8,47.8z"/>
	<g>
		<g>
			<path id="RSS_1_" fill="#676767" d="M18.1,30.4c0.5,0.5,0.9,1.3,0.9,2.1c0,0.8-0.3,1.6-0.9,2.1l0,0c-0.5,0.5-1.3,0.9-2.1,0.9
				c-0.8,0-1.6-0.3-2.1-0.9c-0.5-0.5-0.9-1.3-0.9-2.1c0-0.8,0.3-1.6,0.9-2.1l0,0c0.5-0.5,1.3-0.9,2.1-0.9
				C16.8,29.5,17.6,29.9,18.1,30.4z M18.1,30.4L18.1,30.4L18.1,30.4L18.1,30.4z M13.9,34.6C13.9,34.6,13.9,34.6,13.9,34.6
				C13.9,34.6,13.9,34.6,13.9,34.6L13.9,34.6z M13,20.7V25c2.8,0,5.5,1.1,7.4,3.1c2,2,3.1,4.6,3.1,7.4h0v0h4.3
				c0-4.1-1.7-7.8-4.4-10.5C20.8,22.3,17.1,20.7,13,20.7z M13,13v4.3c10,0,18.2,8.2,18.2,18.2h4.3c0-6.2-2.5-11.8-6.6-15.9
				C24.8,15.5,19.2,13,13,13z"/>
		</g>
		<g>
			<path id="RSS_4_" fill="#FFFFFF" d="M17.6,29.9c0.5,0.5,0.9,1.3,0.9,2.1c0,0.8-0.3,1.6-0.9,2.1l0,0C17,34.6,16.3,35,15.5,35
				c-0.8,0-1.6-0.3-2.1-0.9c-0.5-0.5-0.9-1.3-0.9-2.1c0-0.8,0.3-1.6,0.9-2.1l0,0c0.5-0.5,1.3-0.9,2.1-0.9C16.3,29,17,29.3,17.6,29.9
				z M17.6,29.9L17.6,29.9L17.6,29.9L17.6,29.9z M13.4,34.1C13.4,34.1,13.4,34.1,13.4,34.1C13.4,34.1,13.4,34.1,13.4,34.1L13.4,34.1
				z M12.5,20.1v4.3c2.8,0,5.5,1.1,7.4,3.1c2,2,3.1,4.6,3.1,7.4h0v0h4.3c0-4.1-1.7-7.8-4.4-10.5C20.3,21.8,16.6,20.1,12.5,20.1z
				 M12.5,12.5v4.3c10,0,18.2,8.2,18.2,18.2H35c0-6.2-2.5-11.8-6.6-15.9C24.3,15,18.7,12.5,12.5,12.5z"/>
		</g>
	</g>
</g>
</svg>
