<?xml version="1.0" encoding="utf-8"?>
<!-- Generator: Adobe Illustrator 18.1.1, SVG Export Plug-In . SVG Version: 6.00 Build 0)  -->
<svg version="1.0" id="Capa_1" xmlns="http://www.w3.org/2000/svg" xmlns:xlink="http://www.w3.org/1999/xlink" x="0px" y="0px"
	 viewBox="0 0 48 48" enable-background="new 0 0 48 48" xml:space="preserve">
<g>
	<path fill="#E72369" d="M46.8,47.8H1.2c-0.6,0-1-0.4-1-1V1.2c0-0.6,0.4-1,1-1h45.6c0.6,0,1,0.4,1,1v45.6
		C47.8,47.4,47.4,47.8,46.8,47.8z"/>
	<g>
		<path id="Facebook_1_" fill="#676767" d="M20.9,16.9c0,0.6,0,3.5,0,3.5h-2.5v4.3h2.5v11.8h5.2V24.7h3.5c0,0,0.3-2.1,0.5-4.3
			c-0.5,0-4,0-4,0s0-2.5,0-2.9c0-0.4,0.6-1,1.1-1c0.6,0,1.7,0,2.8,0c0-0.6,0-2.6,0-4.5c-1.5,0-3.1,0-3.9,0
			C20.8,12,20.9,16.3,20.9,16.9z"/>
		<path id="Facebook_3_" fill="#FFFFFF" d="M20.4,16.4c0,0.6,0,3.5,0,3.5h-2.5v4.3h2.5V36h5.2V24.2h3.5c0,0,0.3-2.1,0.5-4.3
			c-0.5,0-4,0-4,0s0-2.5,0-2.9c0-0.4,0.6-1,1.1-1c0.6,0,1.7,0,2.8,0c0-0.6,0-2.6,0-4.5c-1.5,0-3.1,0-3.9,0
			C20.3,11.5,20.4,15.8,20.4,16.4z"/>
	</g>
</g>
</svg>
