<?xml version="1.0" encoding="utf-8"?>
<!-- Generator: Adobe Illustrator 18.1.1, SVG Export Plug-In . SVG Version: 6.00 Build 0)  -->
<svg version="1.1" id="Capa_1" xmlns="http://www.w3.org/2000/svg" xmlns:xlink="http://www.w3.org/1999/xlink" x="0px" y="0px"
	 viewBox="0 0 300 300" enable-background="new 0 0 300 300" xml:space="preserve">
<g>
	<g>
		<g id="Objeto_inteligente_vectorial_2_">
			<defs>
				<rect id="SVGID_1_" x="-0.1" y="-1.1" width="300.1" height="300.1"/>
			</defs>
			<clipPath id="SVGID_2_">
				<use xlink:href="#SVGID_1_"  overflow="visible"/>
			</clipPath>
			<g clip-path="url(#SVGID_2_)">
				<g>
					<defs>
						<rect id="SVGID_3_" x="-0.1" y="-1.1" width="300.1" height="300.1"/>
					</defs>
					<defs>
						<rect id="SVGID_4_" x="-0.1" y="-1.1" width="300.1" height="300.1"/>
					</defs>
					<defs>
						<rect id="SVGID_5_" x="-0.1" y="-1.1" width="300.1" height="300.1"/>
					</defs>
					<clipPath id="SVGID_6_">
						<use xlink:href="#SVGID_3_"  overflow="visible"/>
					</clipPath>
					<clipPath id="SVGID_7_" clip-path="url(#SVGID_6_)">
						<use xlink:href="#SVGID_4_"  overflow="visible"/>
					</clipPath>
					<clipPath id="SVGID_8_" clip-path="url(#SVGID_7_)">
						<use xlink:href="#SVGID_5_"  overflow="visible"/>
					</clipPath>
					<g clip-path="url(#SVGID_8_)">
						<path fill="#EB1951" d="M287.9,299.2H12.2c-6.9,0-12.1-5.2-12.1-12.1V11.2c0-6.9,5.2-12.1,12.1-12.1h275.9
							c6.9,0,12.1,5.2,12.1,12.1v275.9C300.2,294.1,295.1,299.2,287.9,299.2z M12.2,11.2v275.9h275.9c0.2,0,0.2,0,0.2,0l-0.2-275.9
							H12.2z"/>
					</g>
					<g clip-path="url(#SVGID_8_)">
						<path fill="#EB1951" d="M126.9,103.2v21.2h-15v26.1h15v71.5h31.6v-71.5h21.2c0,0,1.7-12.8,3-26.1h-24.2v-17.5
							c0-2.5,3.7-6.2,6.7-6.2h17V73.6h-23.7C126.2,73.4,126.9,99.5,126.9,103.2"/>
					</g>
					<g clip-path="url(#SVGID_8_)">
						<path fill="#FFFFFF" d="M161.2,224.8h-37.5v-71.5h-15v-32.1h15V103c0-12.3,4.7-19.7,8.6-23.7c5.9-5.9,14.8-9.1,25.9-9.1h26.6
							v33.3h-20c-1.2,0-3.5,2.2-3.7,3V121h24.4l-0.2,3.2c-1.2,13.3-3,26.1-3,26.1l-0.5,2.7h-20.7V224.8z M129.9,218.6h25.4v-71.5
							h21.5c0.5-3.9,1.5-11.6,2.2-20H155v-20.5c0-4.2,5.2-9.1,9.6-9.1h13.8V76.3H158c-9.6,0-16.8,2.5-21.7,7.2
							c-3.2,3.2-6.9,8.9-6.9,19.2v24.4h-15v20h15v71.5H129.9z"/>
					</g>
				</g>
			</g>
		</g>
	</g>
</g>
</svg>
