<?xml version="1.0" encoding="utf-8"?>
<!-- Generator: Adobe Illustrator 18.1.1, SVG Export Plug-In . SVG Version: 6.00 Build 0)  -->
<svg version="1.0" id="Capa_1" xmlns="http://www.w3.org/2000/svg" xmlns:xlink="http://www.w3.org/1999/xlink" x="0px" y="0px"
	 viewBox="0 0 48 48" enable-background="new 0 0 48 48" xml:space="preserve">
<g>
	<path fill="#E72369" d="M46.8,47.8H1.2c-0.6,0-1-0.4-1-1V1.2c0-0.6,0.4-1,1-1h45.6c0.6,0,1,0.4,1,1v45.6
		C47.8,47.4,47.4,47.8,46.8,47.8z"/>
	<g>
		<g>
			<g>
				<polygon fill="#676767" points="33.1,16 33.1,12 31.4,12 31.4,16 27.4,16 27.4,17.7 31.4,17.7 31.4,21.8 33.1,21.8 33.1,17.7 
					37.1,17.7 37.1,16 				"/>
				<path fill="#676767" d="M25.9,27.8c-0.2-0.3-0.5-0.7-0.9-1c-0.3-0.3-0.7-0.6-1-0.9L22.9,25c-0.2-0.2-0.4-0.3-0.5-0.5
					C22.1,24.3,22,24,22,23.6c0-0.4,0.1-0.7,0.3-0.9c0.2-0.2,0.4-0.5,0.6-0.7c0.3-0.3,0.7-0.5,1-0.8c0.3-0.3,0.6-0.6,0.9-1
					c0.3-0.4,0.5-0.8,0.6-1.2c0.1-0.4,0.2-1,0.2-1.6c0-0.6-0.1-1.1-0.3-1.6c-0.2-0.5-0.4-0.9-0.6-1.2c-0.2-0.4-0.5-0.7-0.7-0.9
					c-0.3-0.2-0.5-0.4-0.7-0.6h2l2-1.1h-6.6c-0.9,0-1.8,0.1-2.8,0.3c-1,0.2-2,0.7-2.9,1.4c-0.7,0.6-1.2,1.3-1.5,2
					c-0.3,0.8-0.5,1.5-0.5,2.3c0,0.6,0.1,1.2,0.4,1.8c0.2,0.6,0.6,1.1,1,1.6c0.4,0.5,1,0.8,1.7,1.1c0.7,0.3,1.4,0.4,2.3,0.4
					c0.2,0,0.3,0,0.5,0c0.2,0,0.3,0,0.5,0c-0.1,0.2-0.2,0.4-0.2,0.6C19,23.8,19,24,19,24.3c0,0.5,0.1,0.9,0.3,1.2
					c0.2,0.3,0.4,0.6,0.7,0.9c-0.4,0-0.8,0.1-1.3,0.1c-0.5,0-1,0.1-1.6,0.2c-0.6,0.1-1.1,0.3-1.7,0.4c-0.6,0.2-1.1,0.4-1.6,0.7
					c-0.9,0.6-1.6,1.2-1.9,1.9c-0.3,0.7-0.5,1.4-0.5,2c0,0.6,0.1,1.2,0.4,1.7c0.3,0.5,0.7,1,1.3,1.5c0.6,0.4,1.3,0.8,2.2,1
					c0.9,0.3,1.9,0.4,3,0.4c1.4,0,2.6-0.2,3.6-0.5c1.1-0.4,1.9-0.8,2.6-1.4c0.7-0.6,1.2-1.2,1.6-1.9c0.4-0.7,0.5-1.5,0.5-2.2
					c0-0.6-0.1-1-0.2-1.5C26.3,28.5,26.1,28.1,25.9,27.8z M19.8,22.2c-0.7,0-1.3-0.2-1.8-0.6c-0.5-0.4-0.9-0.9-1.3-1.5
					c-0.3-0.6-0.6-1.2-0.7-1.9c-0.2-0.7-0.2-1.3-0.2-1.8c0-0.4,0-0.8,0.1-1.3c0.1-0.4,0.3-0.8,0.6-1.1c0.3-0.3,0.6-0.6,1-0.8
					c0.4-0.2,0.8-0.3,1.2-0.3c0.7,0,1.2,0.2,1.7,0.6c0.5,0.4,0.9,0.9,1.3,1.5c0.3,0.6,0.6,1.2,0.8,1.9c0.2,0.7,0.3,1.3,0.3,1.9
					c0,0.3,0,0.7-0.1,1.1c-0.1,0.5-0.3,0.9-0.7,1.2c-0.3,0.3-0.6,0.5-1,0.6C20.6,22.1,20.2,22.2,19.8,22.2z M23.3,34.1
					c-0.8,0.6-2,1-3.5,1c-1.7,0-3.1-0.4-4.1-1.1c-1-0.7-1.5-1.7-1.5-2.8c0-0.6,0.1-1.1,0.3-1.4c0.2-0.4,0.5-0.7,0.8-1
					c0.3-0.3,0.6-0.5,0.9-0.6c0.3-0.1,0.6-0.2,0.7-0.3c0.3-0.1,0.7-0.2,1.1-0.3c0.4-0.1,0.7-0.1,1-0.2c0.3,0,0.6-0.1,0.8-0.1
					c0.2,0,0.4,0,0.4,0c0.2,0,0.3,0,0.4,0c0.1,0,0.2,0,0.3,0c0.6,0.4,1.1,0.8,1.6,1.2c0.4,0.3,0.8,0.7,1.1,1c0.3,0.3,0.5,0.6,0.6,1
					c0.1,0.3,0.2,0.7,0.2,1.1C24.6,32.6,24.2,33.5,23.3,34.1z"/>
			</g>
		</g>
		<g>
			<g>
				<polygon fill="#FFFFFF" points="32.6,15.6 32.6,11.6 30.9,11.6 30.9,15.6 26.9,15.6 26.9,17.3 30.9,17.3 30.9,21.3 32.6,21.3 
					32.6,17.3 36.6,17.3 36.6,15.6 				"/>
				<path fill="#FFFFFF" d="M25.4,27.3c-0.2-0.3-0.5-0.7-0.9-1c-0.3-0.3-0.7-0.6-1-0.9l-1.2-0.9c-0.2-0.2-0.4-0.3-0.5-0.5
					c-0.2-0.2-0.3-0.5-0.3-0.9c0-0.4,0.1-0.7,0.3-0.9c0.2-0.2,0.4-0.5,0.6-0.7c0.3-0.3,0.7-0.5,1-0.8c0.3-0.3,0.6-0.6,0.9-1
					c0.3-0.4,0.5-0.8,0.6-1.2c0.1-0.4,0.2-1,0.2-1.6c0-0.6-0.1-1.1-0.3-1.6c-0.2-0.5-0.4-0.9-0.6-1.2c-0.2-0.4-0.5-0.7-0.7-0.9
					c-0.3-0.2-0.5-0.4-0.7-0.6h2l2-1.1h-6.6c-0.9,0-1.8,0.1-2.8,0.3c-1,0.2-2,0.7-2.9,1.4c-0.7,0.6-1.2,1.3-1.5,2
					c-0.3,0.8-0.5,1.5-0.5,2.3c0,0.6,0.1,1.2,0.4,1.8c0.2,0.6,0.6,1.1,1,1.6c0.4,0.5,1,0.8,1.7,1.1c0.7,0.3,1.4,0.4,2.3,0.4
					c0.2,0,0.3,0,0.5,0c0.2,0,0.3,0,0.5,0c-0.1,0.2-0.2,0.4-0.2,0.6c-0.1,0.2-0.1,0.4-0.1,0.7c0,0.5,0.1,0.9,0.3,1.2
					c0.2,0.3,0.4,0.6,0.7,0.9c-0.4,0-0.8,0.1-1.3,0.1c-0.5,0-1,0.1-1.6,0.2c-0.6,0.1-1.1,0.3-1.7,0.4c-0.6,0.2-1.1,0.4-1.6,0.7
					c-0.9,0.6-1.6,1.2-1.9,1.9c-0.3,0.7-0.5,1.4-0.5,2c0,0.6,0.1,1.2,0.4,1.7c0.3,0.5,0.7,1,1.3,1.5c0.6,0.4,1.3,0.8,2.2,1
					c0.9,0.3,1.9,0.4,3,0.4c1.4,0,2.6-0.2,3.6-0.5c1.1-0.4,1.9-0.8,2.6-1.4c0.7-0.6,1.2-1.2,1.6-1.9c0.4-0.7,0.5-1.5,0.5-2.2
					c0-0.6-0.1-1-0.2-1.5C25.8,28,25.6,27.6,25.4,27.3z M19.3,21.7c-0.7,0-1.3-0.2-1.8-0.6c-0.5-0.4-0.9-0.9-1.3-1.5
					c-0.3-0.6-0.6-1.2-0.7-1.9c-0.2-0.7-0.2-1.3-0.2-1.8c0-0.4,0-0.8,0.1-1.3c0.1-0.4,0.3-0.8,0.6-1.1c0.3-0.3,0.6-0.6,1-0.8
					c0.4-0.2,0.8-0.3,1.2-0.3c0.7,0,1.2,0.2,1.7,0.6c0.5,0.4,0.9,0.9,1.3,1.5c0.3,0.6,0.6,1.2,0.8,1.9c0.2,0.7,0.3,1.3,0.3,1.9
					c0,0.3,0,0.7-0.1,1.1c-0.1,0.5-0.3,0.9-0.7,1.2c-0.3,0.3-0.6,0.5-1,0.6C20.1,21.7,19.7,21.7,19.3,21.7z M22.9,33.6
					c-0.8,0.6-2,1-3.5,1c-1.7,0-3.1-0.4-4.1-1.1c-1-0.7-1.5-1.7-1.5-2.8c0-0.6,0.1-1.1,0.3-1.4c0.2-0.4,0.5-0.7,0.8-1
					c0.3-0.3,0.6-0.5,0.9-0.6c0.3-0.1,0.6-0.2,0.7-0.3c0.3-0.1,0.7-0.2,1.1-0.3c0.4-0.1,0.7-0.1,1-0.2c0.3,0,0.6-0.1,0.8-0.1
					c0.2,0,0.4,0,0.4,0c0.2,0,0.3,0,0.4,0c0.1,0,0.2,0,0.3,0c0.6,0.4,1.1,0.8,1.6,1.2c0.4,0.3,0.8,0.7,1.1,1c0.3,0.3,0.5,0.6,0.6,1
					c0.1,0.3,0.2,0.7,0.2,1.1C24.1,32.2,23.7,33,22.9,33.6z"/>
			</g>
		</g>
	</g>
</g>
</svg>
