<?xml version="1.0" encoding="utf-8"?>
<!-- Generator: Adobe Illustrator 18.1.1, SVG Export Plug-In . SVG Version: 6.00 Build 0)  -->
<svg version="1.0" id="Capa_1" xmlns="http://www.w3.org/2000/svg" xmlns:xlink="http://www.w3.org/1999/xlink" x="0px" y="0px"
	 viewBox="0 0 48 48" enable-background="new 0 0 48 48" xml:space="preserve">
<g>
	<path fill="#E72369" d="M46.8,47.8H1.2c-0.6,0-1-0.4-1-1V1.2c0-0.6,0.4-1,1-1h45.6c0.6,0,1,0.4,1,1v45.6
		C47.8,47.4,47.4,47.8,46.8,47.8z"/>
	<g>
		<g>
			<g>
				<g>
					<g>
						<path fill="#676767" d="M32.7,11.4H15.8c-2.6,0-4.8,2.1-4.8,4.7v16.4c0,2.6,2.2,4.7,4.8,4.7h16.9c2.6,0,4.8-2.1,4.8-4.7V16.1
							C37.5,13.5,35.3,11.4,32.7,11.4z M29.6,15c0-0.6,0.5-1,1.1-1c1.1,0,2.1,0,3.2,0c0.5,0,1,0.3,1.1,0.9c0,0.1,0,0.1,0,0.2
							c0,1,0,2,0,3c0,0.5-0.4,0.9-0.9,1c-0.1,0-0.1,0-0.2,0c-0.5,0-1.1,0-1.6,0c-0.5,0-1.1,0-1.6,0c-0.5,0-1-0.3-1.1-0.9
							c0,0,0-0.1,0-0.1C29.6,17,29.6,16,29.6,15z M24.3,19c2.9,0,5.3,2.3,5.3,5.1c0,2.8-2.4,5-5.3,5c-2.9,0-5.3-2.3-5.3-5
							C18.9,21.3,21.3,19,24.3,19z M34.9,22.2c0,3,0,6,0,9c0,0.7,0,1.3,0,2c0,0.5-0.3,0.9-0.8,1c-0.1,0-0.2,0-0.3,0
							c-3.1,0-6.1,0-9.2,0c-3.3,0-6.5,0-9.8,0c-0.1,0-0.3,0-0.4-0.1c-0.4-0.1-0.7-0.5-0.7-0.9c0-0.1,0-0.1,0-0.2c0-3.6,0-7.3,0-10.9
							c0,0,0-0.1,0-0.1c0.8,0,1.6,0,2.4,0c-0.5,2.1-0.3,4.1,0.8,6c0.8,1.3,1.9,2.4,3.3,3.1c1.4,0.7,2.9,1.1,4.5,1
							c2.7-0.1,4.8-1.3,6.4-3.3c1.6-2.1,2-4.3,1.4-6.8c0.8,0,1.6,0,2.4,0C34.9,22.1,34.9,22.2,34.9,22.2z"/>
					</g>
				</g>
			</g>
		</g>
		<g>
			<g>
				<g>
					<g>
						<path fill="#FFFFFF" d="M32.2,10.9H15.3c-2.6,0-4.8,2.1-4.8,4.7v16.4c0,2.6,2.2,4.7,4.8,4.7h16.9c2.6,0,4.8-2.1,4.8-4.7V15.5
							C37,13,34.8,10.9,32.2,10.9z M29.1,14.5c0-0.6,0.5-1,1.1-1c1.1,0,2.1,0,3.2,0c0.5,0,1,0.3,1.1,0.9c0,0.1,0,0.1,0,0.2
							c0,1,0,2,0,3c0,0.5-0.4,0.9-0.9,1c-0.1,0-0.1,0-0.2,0c-0.5,0-1.1,0-1.6,0c-0.5,0-1.1,0-1.6,0c-0.5,0-1-0.3-1.1-0.9
							c0,0,0-0.1,0-0.1C29.1,16.5,29.1,15.5,29.1,14.5z M23.7,18.5c2.9,0,5.3,2.3,5.3,5.1c0,2.8-2.4,5-5.3,5c-2.9,0-5.3-2.3-5.3-5
							C18.4,20.8,20.8,18.5,23.7,18.5z M34.4,21.7c0,3,0,6,0,9c0,0.7,0,1.3,0,2c0,0.5-0.3,0.9-0.8,1c-0.1,0-0.2,0-0.3,0
							c-3.1,0-6.1,0-9.2,0c-3.3,0-6.5,0-9.8,0c-0.1,0-0.3,0-0.4-0.1c-0.4-0.1-0.7-0.5-0.7-0.9c0-0.1,0-0.1,0-0.2c0-3.6,0-7.3,0-10.9
							c0,0,0-0.1,0-0.1c0.8,0,1.6,0,2.4,0c-0.5,2.1-0.3,4.1,0.8,6c0.8,1.3,1.9,2.4,3.3,3.1c1.4,0.7,2.9,1.1,4.5,1
							c2.7-0.1,4.8-1.3,6.4-3.3c1.6-2.1,2-4.3,1.4-6.8c0.8,0,1.6,0,2.4,0C34.4,21.6,34.4,21.6,34.4,21.7z"/>
					</g>
				</g>
			</g>
		</g>
	</g>
</g>
</svg>
