<?xml version="1.0" encoding="utf-8"?>
<!-- Generator: Adobe Illustrator 18.1.1, SVG Export Plug-In . SVG Version: 6.00 Build 0)  -->
<svg version="1.0" id="Capa_1" xmlns="http://www.w3.org/2000/svg" xmlns:xlink="http://www.w3.org/1999/xlink" x="0px" y="0px"
	 viewBox="0 0 48 48" enable-background="new 0 0 48 48" xml:space="preserve">
<g>
	<path fill="#E72369" d="M46.8,47.8H1.2c-0.5,0-1-0.4-1-1V1.2c0-0.5,0.4-1,1-1h45.6c0.5,0,1,0.4,1,1v45.6
		C47.8,47.4,47.4,47.8,46.8,47.8z"/>
	<g>
		<path fill="#676767" d="M18.1,34.4h-4.3V20.6h4.3V34.4z M15.8,18.9L15.8,18.9c-1.6,0-2.6-1.1-2.6-2.4c0-1.4,1-2.4,2.6-2.4
			c1.6,0,2.6,1,2.6,2.4C18.4,17.8,17.4,18.9,15.8,18.9z M35.3,34.4h-4.9v-7.1c0-1.9-0.8-3.1-2.4-3.1c-1.3,0-2,0.9-2.3,1.7
			c-0.1,0.3-0.1,0.7-0.1,1.1v7.5h-4.8c0,0,0.1-12.6,0-13.8h4.8v2.2c0.3-0.9,1.8-2.3,4.3-2.3c3.1,0,5.5,2,5.5,6.2V34.4z"/>
		<path fill="#FFFFFF" d="M17.6,33.9h-4.3V20.1h4.3V33.9z M15.3,18.4L15.3,18.4c-1.6,0-2.6-1.1-2.6-2.4c0-1.4,1-2.4,2.6-2.4
			c1.6,0,2.6,1,2.6,2.4C17.9,17.3,16.9,18.4,15.3,18.4z M34.8,33.9h-4.9v-7.1c0-1.9-0.8-3.1-2.4-3.1c-1.3,0-2,0.9-2.3,1.7
			C25,25.6,25,26,25,26.4v7.5h-4.8c0,0,0.1-12.6,0-13.8H25v2.2c0.3-0.9,1.8-2.3,4.3-2.3c3.1,0,5.5,2,5.5,6.2V33.9z"/>
	</g>
</g>
</svg>
