<?xml version="1.0" encoding="utf-8"?>
<!-- Generator: Adobe Illustrator 19.2.1, SVG Export Plug-In . SVG Version: 6.00 Build 0)  -->
<!DOCTYPE svg PUBLIC "-//W3C//DTD SVG 1.1//EN" "http://www.w3.org/Graphics/SVG/1.1/DTD/svg11.dtd">
<svg version="1.1" id="Capa_1" xmlns="http://www.w3.org/2000/svg" xmlns:xlink="http://www.w3.org/1999/xlink" x="0px" y="0px"
	 viewBox="0 0 48 48" style="enable-background:new 0 0 48 48;" xml:space="preserve">
<style type="text/css">
	.st0{fill:#666666;}
	.st1{fill:#676767;}
	.st2{fill:#FFFFFF;}
</style>
<g>
	<path class="st0" d="M46.8,47.8H1.2c-0.6,0-1-0.4-1-1V1.2c0-0.6,0.4-1,1-1h45.6c0.6,0,1,0.4,1,1v45.6
		C47.8,47.4,47.4,47.8,46.8,47.8z"/>
	<g>
		<g>
			<path class="st1" d="M37.5,16c-1,0.4-2,0.7-3.1,0.9c1.1-0.7,2-1.7,2.4-3c-1,0.6-2.2,1.1-3.4,1.3c-1-1.1-2.4-1.7-4-1.7
				c-3,0-5.4,2.4-5.4,5.4c0,0.4,0,0.8,0.1,1.2c-4.5-0.2-8.5-2.4-11.2-5.7c-0.5,0.8-0.7,1.7-0.7,2.7c0,1.9,1,3.5,2.4,4.5
				c-0.9,0-1.7-0.3-2.5-0.7c0,0,0,0,0,0.1c0,2.6,1.9,4.8,4.4,5.3c-0.5,0.1-0.9,0.2-1.4,0.2c-0.4,0-0.7,0-1-0.1
				c0.7,2.2,2.7,3.7,5.1,3.8c-1.9,1.5-4.2,2.3-6.7,2.3c-0.4,0-0.9,0-1.3-0.1c2.4,1.5,5.3,2.4,8.3,2.4c10,0,15.4-8.3,15.4-15.4
				c0-0.2,0-0.5,0-0.7C35.8,18.1,36.7,17.1,37.5,16z"/>
		</g>
		<g>
			<path class="st2" d="M37,15.6c-1,0.4-2,0.7-3.1,0.9c1.1-0.7,2-1.7,2.4-3c-1,0.6-2.2,1.1-3.4,1.3c-1-1.1-2.4-1.7-4-1.7
				c-3,0-5.4,2.4-5.4,5.4c0,0.4,0,0.8,0.1,1.2C19,19.4,15,17.3,12.4,14c-0.5,0.8-0.7,1.7-0.7,2.7c0,1.9,1,3.5,2.4,4.5
				c-0.9,0-1.7-0.3-2.5-0.7c0,0,0,0,0,0.1c0,2.6,1.9,4.8,4.4,5.3c-0.5,0.1-0.9,0.2-1.4,0.2c-0.4,0-0.7,0-1-0.1
				c0.7,2.2,2.7,3.7,5.1,3.8c-1.9,1.5-4.2,2.3-6.7,2.3c-0.4,0-0.9,0-1.3-0.1c2.4,1.5,5.3,2.4,8.3,2.4c10,0,15.4-8.3,15.4-15.4
				c0-0.2,0-0.5,0-0.7C35.3,17.6,36.3,16.6,37,15.6z"/>
		</g>
	</g>
</g>
</svg>
