<?xml version="1.0" encoding="utf-8"?>
<!-- Generator: Adobe Illustrator 18.1.1, SVG Export Plug-In . SVG Version: 6.00 Build 0)  -->
<svg version="1.1" id="Capa_1" xmlns="http://www.w3.org/2000/svg" xmlns:xlink="http://www.w3.org/1999/xlink" x="0px" y="0px"
	 viewBox="0 0 300 300" enable-background="new 0 0 300 300" xml:space="preserve">
<path fill="none" d="M221.3,118.8c-0.6-1.3-1.9-1.9-3.1-2.5c-1.3-0.6-2.5-0.6-3.8-0.6c-1.3,0-2.5,0-3.7,0.6
	c-1.3,0.6-2.5,1.3-3.1,2.5c-0.6,1.3-1.3,1.9-1.9,3.1c-0.6,1.3-0.6,2.5-0.6,3.8c0,1.9,0,3.1,0.6,4.4c0.6,1.3,1.3,1.9,1.9,3.1
	c0.6,0.6,1.9,1.9,3.1,2.5s2.5,1.3,3.7,1.3c1.3,0,2.5-0.6,3.8-1.3c1.3-0.6,2.5-1.3,3.1-2.5c0.6-0.6,1.9-1.9,2.5-3.1
	c0.6-1.3,1.3-2.5,1.3-4.4c0-1.3-0.6-2.5-1.3-3.8C223.1,121.3,222.5,120,221.3,118.8z"/>
<path fill="none" d="M116.9,214.4H195V155h-78.1V214.4z M126.3,165.6H185v9.4h-58.7V165.6z M126.3,185h49.4v9.4h-49.4V185z"/>
<path fill="#676767" d="M8.8,0v291.3H300V0H8.8z M106.3,76.9c0-5.7,5.6-11.2,11.3-11.2c0,0,78.1,0,78.1,0c5.8,0,11.2,5.4,11.2,11.2
	c0,0,0,19.4,0,19.4h-10V76.9h-80v19.4h-10.6C106.3,96.3,106.3,76.9,106.3,76.9z M233.1,175c0,1.2,0,2.5-0.3,3.7
	c-0.7,2.7-3.2,4.5-5.5,5.7c-1.1,0.6-2.3,1-3.6,1.2c-0.4,0.1-0.8,0.1-1.2,0.1c0,0-20,0-20,0c0,4.5,0,9,0,13.5c0,5.2,0.1,10.4,0,15.6
	c-0.1,5.8-5.6,10.3-11.3,10.3c0,0-75.4,0-75.6,0c-2.6,0-5.4-0.5-7.6-2c-2.6-1.8-3.7-4.8-3.7-8c0,0,0-29.4,0-29.4s-20,0-20,0
	c-5.1,0-10.6-5.5-10.6-10.6c0,0,0-58.7,0-58.8c0-2.6,1.7-5.2,3.6-6.8c1.9-1.7,4.5-2.6,7-2.6c0,0,138,0,138.1,0
	c5.1,0,10.6,4,10.6,9.4C233.1,116.3,233.1,175,233.1,175z"/>
<path fill="#676767" d="M115.6,155v60h80v-60H115.6L115.6,155z M173.1,199.4h-49.4V190h49.4V199.4z M182.5,179.4h-58.7V170h58.7
	V179.4z"/>
<circle fill="#676767" cx="214.4" cy="126.3" r="10.6"/>
</svg>
