<?xml version="1.0" encoding="utf-8"?>
<!-- Generator: Adobe Illustrator 18.1.1, SVG Export Plug-In . SVG Version: 6.00 Build 0)  -->
<svg version="1.1" id="Capa_1" xmlns="http://www.w3.org/2000/svg" xmlns:xlink="http://www.w3.org/1999/xlink" x="0px" y="0px"
	 viewBox="0 0 300 300" enable-background="new 0 0 300 300" xml:space="preserve">
<rect x="8.8" fill="#676767" width="291.3" height="291.3"/>
<g>
	<g>
		<path fill="#FFFFFF" d="M234,215H70.2c-9.7,0-17.6-8.1-17.6-18V98.5c0-9.9,7.9-18,17.6-18H234c9.7,0,17.6,8.1,17.6,18V197
			C251.7,206.9,243.8,215,234,215z M70.2,89.7c-4.8,0-8.7,4-8.7,8.9V197c0,4.9,3.9,8.9,8.7,8.9H234c4.8,0,8.7-4,8.7-8.9V98.5
			c0-4.9-3.9-8.9-8.7-8.9H70.2z"/>
	</g>
	<g>
		<path fill="#FFFFFF" d="M234.4,193.5c-1.9,2.2-5.2,2.4-7.4,0.4l-53.1-48.2l-17.2,10.2c-1,1.4-2.5,2.3-4,2.3c-0.1,0-0.9-0.1-1-0.1
			c-1.7,0-3.2-0.8-4.1-2.2l-17.2-10.2l-53.1,48.2c-2.2,2-5.5,1.8-7.4-0.4c-1.9-2.2-1.7-5.6,0.4-7.5l50.5-45.9l-48-28.4
			c-2.5-1.5-3.6-5.2-2.3-8.1c0.9-2,2.7-3.3,4.6-3.3c0.8,0,1.6,0.2,2.4,0.7l74.6,44.1l74.7-44.1c0.7-0.4,1.5-0.7,2.3-0.7
			c2,0,3.7,1.3,4.6,3.3c1.3,3,0.2,6.6-2.3,8.1l-48,28.4l50.5,45.9C236.1,187.9,236.3,191.3,234.4,193.5z"/>
	</g>
</g>
</svg>
