<?xml version="1.0" encoding="utf-8"?>
<!-- Generator: Adobe Illustrator 18.1.1, SVG Export Plug-In . SVG Version: 6.00 Build 0)  -->
<svg version="1.0" id="Capa_1" xmlns="http://www.w3.org/2000/svg" xmlns:xlink="http://www.w3.org/1999/xlink" x="0px" y="0px"
	 viewBox="0 0 48 48" enable-background="new 0 0 48 48" xml:space="preserve">
<g>
	<path fill="#E72369" d="M46.8,47.8H1.2c-0.6,0-1-0.4-1-1V1.2c0-0.6,0.4-1,1-1h45.6c0.6,0,1,0.4,1,1v45.6
		C47.8,47.4,47.4,47.8,46.8,47.8z"/>
	<g>
		<g>
			<path fill="#676767" d="M24.9,10.8c-7.3,0-11,5.3-11,9.6c0,2.7,1,5,3.2,5.9c0.4,0.1,0.7,0,0.8-0.4c0.1-0.3,0.2-1,0.3-1.2
				c0.1-0.4,0.1-0.5-0.2-0.9c-0.6-0.7-1-1.7-1-3c0-3.9,2.9-7.4,7.6-7.4c4.1,0,6.4,2.5,6.4,5.9c0,4.5-2,8.2-4.9,8.2
				c-1.6,0-2.8-1.3-2.4-3c0.5-2,1.4-4.1,1.4-5.5c0-1.3-0.7-2.3-2.1-2.3c-1.7,0-3,1.7-3,4c0,1.5,0.5,2.4,0.5,2.4s-1.7,7.2-2,8.4
				c-0.6,2.5-0.1,5.6,0,5.9c0,0.2,0.3,0.2,0.4,0.1c0.2-0.2,2.1-2.6,2.8-5.1c0.2-0.7,1.1-4.2,1.1-4.2c0.5,1,2.1,1.9,3.8,1.9
				c5,0,8.3-4.5,8.3-10.6C34.7,15.1,30.8,10.8,24.9,10.8z"/>
		</g>
		<g>
			<path fill="#FFFFFF" d="M24.4,10.3c-7.3,0-11,5.3-11,9.6c0,2.7,1,5,3.2,5.9c0.4,0.1,0.7,0,0.8-0.4c0.1-0.3,0.2-1,0.3-1.2
				c0.1-0.4,0.1-0.5-0.2-0.9c-0.6-0.7-1-1.7-1-3c0-3.9,2.9-7.4,7.6-7.4c4.1,0,6.4,2.5,6.4,5.9c0,4.5-2,8.2-4.9,8.2
				c-1.6,0-2.8-1.3-2.4-3c0.5-2,1.4-4.1,1.4-5.5c0-1.3-0.7-2.3-2.1-2.3c-1.7,0-3,1.7-3,4c0,1.5,0.5,2.4,0.5,2.4s-1.7,7.2-2,8.4
				c-0.6,2.5-0.1,5.6,0,5.9c0,0.2,0.3,0.2,0.4,0.1c0.2-0.2,2.1-2.6,2.8-5.1c0.2-0.7,1.1-4.2,1.1-4.2c0.5,1,2.1,1.9,3.8,1.9
				c5,0,8.3-4.5,8.3-10.6C34.1,14.6,30.3,10.3,24.4,10.3z"/>
		</g>
	</g>
</g>
</svg>
