<?xml version="1.0" encoding="utf-8"?>
<!-- Generator: Adobe Illustrator 18.1.1, SVG Export Plug-In . SVG Version: 6.00 Build 0)  -->
<svg version="1.1" id="Capa_1" xmlns="http://www.w3.org/2000/svg" xmlns:xlink="http://www.w3.org/1999/xlink" x="0px" y="0px"
	 viewBox="0 0 300 300" enable-background="new 0 0 300 300" xml:space="preserve">
<g>
	<g>
		<g>
			<g>
				<defs>
					<rect id="SVGID_1_" x="0.1" y="0.1" width="299.8" height="299.8"/>
				</defs>
				<clipPath id="SVGID_2_">
					<use xlink:href="#SVGID_1_"  overflow="visible"/>
				</clipPath>
				<g id="Objeto_inteligente_vectorial_1_" clip-path="url(#SVGID_2_)">
					<g>
						<g>
							<defs>
								<rect id="SVGID_3_" x="0.1" y="0.1" width="299.8" height="299.8"/>
							</defs>
							<defs>
								<rect id="SVGID_4_" x="0.1" y="0.1" width="299.8" height="299.8"/>
							</defs>
							<defs>
								<rect id="SVGID_5_" x="0.1" y="0.1" width="299.8" height="299.8"/>
							</defs>
							<defs>
								<rect id="SVGID_6_" x="0.1" y="0.1" width="299.8" height="299.8"/>
							</defs>
							<defs>
								<rect id="SVGID_7_" x="0.1" y="0.1" width="299.8" height="299.8"/>
							</defs>
							<clipPath id="SVGID_8_">
								<use xlink:href="#SVGID_3_"  overflow="visible"/>
							</clipPath>
							<clipPath id="SVGID_9_" clip-path="url(#SVGID_8_)">
								<use xlink:href="#SVGID_4_"  overflow="visible"/>
							</clipPath>
							<clipPath id="SVGID_10_" clip-path="url(#SVGID_9_)">
								<use xlink:href="#SVGID_5_"  overflow="visible"/>
							</clipPath>
							<clipPath id="SVGID_11_" clip-path="url(#SVGID_10_)">
								<use xlink:href="#SVGID_6_"  overflow="visible"/>
							</clipPath>
							<clipPath id="SVGID_12_" clip-path="url(#SVGID_11_)">
								<use xlink:href="#SVGID_7_"  overflow="visible"/>
							</clipPath>
							<g clip-path="url(#SVGID_12_)">
								<path fill="#EB1951" d="M287.8,300.1H12.4c-6.9,0-12.1-5.2-12.1-12.1V12.4c0-6.9,5.2-12.1,12.1-12.1h275.6
									c6.9,0,12.1,5.2,12.1,12.1v275.6C300.1,295,295,300.1,287.8,300.1z M12.4,12.4v275.6h275.6c0.2,0,0.2,0,0.2,0l-0.2-275.6
									H12.4z"/>
							</g>
							<g clip-path="url(#SVGID_12_)">
								<path fill="#EB1951" d="M226.5,98.4c-6.2,2.5-12.1,4.2-18.7,5.4c6.7-4.2,12.1-10.3,14.5-18.2c-6.2,3.7-13.3,6.7-20.4,7.9
									c-6.2-6.7-14.5-10.3-24.1-10.3c-18.2,0-32.8,14.5-32.8,32.8c0,2.5,0,4.9,0.5,7.1c-27.8-1.7-52-14.5-67.7-34.5
									c-3,4.9-4.2,10.3-4.2,16.3c0,11.6,6.2,21.2,14.5,27.1c-5.4,0-10.3-1.7-15-4.2v0.5c0,15.8,11.6,29.1,26.6,32
									c-3,0.5-5.4,1.2-8.4,1.2c-2.5,0-4.2,0-6.2-0.5c4.2,13.3,16.3,22.4,30.8,22.9c-11.6,9.1-25.4,13.8-40.4,13.8
									c-2.5,0-5.4,0-7.9-0.5c14.5,9.1,32,14.5,50.2,14.5c60.3,0,93.1-50.2,93.1-93.1v-4.2C216.4,110.5,222.3,104.6,226.5,98.4"/>
							</g>
						</g>
					</g>
				</g>
			</g>
		</g>
	</g>
</g>
</svg>
