<?xml version="1.0" encoding="utf-8"?>
<!-- Generator: Adobe Illustrator 18.1.1, SVG Export Plug-In . SVG Version: 6.00 Build 0)  -->
<svg version="1.0" id="Capa_1" xmlns="http://www.w3.org/2000/svg" xmlns:xlink="http://www.w3.org/1999/xlink" x="0px" y="0px"
	 viewBox="0 0 48 48" enable-background="new 0 0 48 48" xml:space="preserve">
<g>
	<path fill="#E72369" d="M46.8,47.8H1.2c-0.6,0-1-0.4-1-1V1.2c0-0.6,0.4-1,1-1h45.6c0.6,0,1,0.4,1,1v45.6
		C47.8,47.4,47.4,47.8,46.8,47.8z"/>
	<g>
		<g>
			<path fill="#676767" d="M38.9,18.7c0-2.3-1.9-4.2-4.3-4.2c-3.2-0.1-6.5-0.2-9.8-0.2c-0.2,0-0.3,0-0.5,0c-0.2,0-0.3,0-0.5,0
				c-3.3,0-6.6,0.1-9.8,0.2c-2.4,0-4.3,1.9-4.3,4.2c-0.1,1.8-0.2,3.7-0.2,5.5c0,1.9,0.1,3.7,0.2,5.6c0,2.3,1.9,4.2,4.3,4.2
				c3.4,0.1,6.8,0.2,10.3,0.2c3.5,0,7-0.1,10.3-0.2c2.4,0,4.3-1.9,4.3-4.2c0.1-1.9,0.2-3.7,0.2-5.6C39.1,22.4,39,20.6,38.9,18.7z
				 M28.8,25.2l-8.2,4.7c-0.9,0.5-1.6,0.1-1.6-0.9l0-9.4c0-1,0.7-1.4,1.6-0.9l8.2,4.7C29.7,23.8,29.7,24.7,28.8,25.2z"/>
		</g>
		<g>
			<path fill="#FFFFFF" d="M38.4,18.2c0-2.3-1.9-4.2-4.3-4.2c-3.2-0.1-6.5-0.2-9.8-0.2c-0.2,0-0.3,0-0.5,0c-0.2,0-0.3,0-0.5,0
				c-3.3,0-6.6,0.1-9.8,0.2c-2.4,0-4.3,1.9-4.3,4.2C9,20,8.9,21.9,8.9,23.7c0,1.9,0.1,3.7,0.2,5.6c0,2.3,1.9,4.2,4.3,4.2
				c3.4,0.1,6.8,0.2,10.3,0.2c3.5,0,7-0.1,10.3-0.2c2.4,0,4.3-1.9,4.3-4.2c0.1-1.9,0.2-3.7,0.2-5.6C38.6,21.9,38.5,20,38.4,18.2z
				 M28.3,24.6l-8.2,4.7c-0.9,0.5-1.6,0.1-1.6-0.9l0-9.4c0-1,0.7-1.4,1.6-0.9l8.2,4.7C29.1,23.3,29.1,24.1,28.3,24.6z"/>
		</g>
	</g>
</g>
</svg>
