<?xml version="1.0" encoding="utf-8"?>
<!-- Generator: Adobe Illustrator 18.1.1, SVG Export Plug-In . SVG Version: 6.00 Build 0)  -->
<!DOCTYPE svg PUBLIC "-//W3C//DTD SVG 1.1//EN" "http://www.w3.org/Graphics/SVG/1.1/DTD/svg11.dtd">
<svg version="1.1" id="Layer_1" xmlns="http://www.w3.org/2000/svg" xmlns:xlink="http://www.w3.org/1999/xlink" x="0px" y="0px"
	 viewBox="157.9 290.1 176.6 135.8" enable-background="new 157.9 290.1 176.6 135.8" xml:space="preserve">
<path d="M324.5,290.1H168c-5.8,0-10.1,4.8-10.1,10.1c0,5.3,4.8,10.1,10.1,10.1h156.5c5.8,0,10.1-4.8,10.1-10.1
	C334.6,294.9,330.2,290.1,324.5,290.1z"/>
<path d="M324.5,348.2H168c-5.8,0-10.1,4.8-10.1,10.1c0,5.8,4.8,10.1,10.1,10.1h156.5c5.8,0,10.1-4.8,10.1-10.1
	C334.6,352.5,330.2,348.2,324.5,348.2z"/>
<path d="M324.5,405.8H168c-5.8,0-10.1,4.8-10.1,10.1c0,5.3,4.8,10.1,10.1,10.1h156.5c5.8,0,10.1-4.8,10.1-10.1
	C334.6,410.6,330.2,405.8,324.5,405.8z"/>
</svg>
