<?xml version="1.0" encoding="utf-8"?>
<!-- Generator: Adobe Illustrator 18.1.1, SVG Export Plug-In . SVG Version: 6.00 Build 0)  -->
<svg version="1.1" id="Layer_1" xmlns="http://www.w3.org/2000/svg" xmlns:xlink="http://www.w3.org/1999/xlink" x="0px" y="0px"
	 viewBox="0 0 612 485" enable-background="new 0 0 612 485" xml:space="preserve">
<path fill="#666666" d="M577.2,7.8H34.8c-20.1,0-35,16.6-35,35c0,18.4,16.6,35,35,35h542.3c20.1,0,35-16.6,35-35
	S596.9,7.8,577.2,7.8z"/>
<path fill="#666666" d="M577.2,209.1H34.8c-20.1,0-35,16.6-35,35c0,20.1,16.6,35,35,35h542.3c20.1,0,35-16.6,35-35
	C612.2,224,596.9,209.1,577.2,209.1z"/>
<path fill="#666666" d="M577.2,408.7H34.8c-20.1,0-35,16.6-35,35c0,18.4,16.6,35,35,35h542.3c20.1,0,35-16.6,35-35
	C612.2,425.4,596.9,408.7,577.2,408.7z"/>
</svg>
