<?xml version="1.0" encoding="utf-8"?>
<!-- Generator: Adobe Illustrator 18.1.1, SVG Export Plug-In . SVG Version: 6.00 Build 0)  -->
<svg version="1.1" id="Capa_1" xmlns="http://www.w3.org/2000/svg" xmlns:xlink="http://www.w3.org/1999/xlink" x="0px" y="0px"
	 viewBox="0 0 612 609.6" enable-background="new 0 0 612 609.6" xml:space="preserve">
<path fill="#CCCCCC" d="M610.8,26c0-15.4-11.8-26-26-26H27.2c-15.4,0-26,11.8-26,26v557.7c0,15.4,11.8,26,26,26h557.7
	c15.4,0,26-11.8,26-26V26z M491.5,480.9c-7.1,7.1-16.5,9.5-24.8,9.5c-8.3,0-17.7-3.5-24.8-9.5L309.5,347.4L176,480.9
	c-7.1,7.1-15.4,9.5-24.8,9.5s-17.7-3.5-24.8-9.5c-13-13-13-35.4,0-48.4l132.3-134.7L125.2,164.2c-13-13-13-35.4,0-48.4
	s35.4-13,48.4,0l134.7,133.5l133.5-134.7c13-13,35.4-13,48.4,0s13,35.4,0,48.4L358,297.7l133.5,133.5
	C505.7,445.4,505.7,467.9,491.5,480.9z"/>
</svg>
