<?xml version="1.0" encoding="utf-8"?>
<!-- Generator: Adobe Illustrator 18.1.1, SVG Export Plug-In . SVG Version: 6.00 Build 0)  -->
<svg version="1.1" id="Capa_1" xmlns="http://www.w3.org/2000/svg" xmlns:xlink="http://www.w3.org/1999/xlink" x="0px" y="0px"
	 viewBox="0 0 174 174" enable-background="new 0 0 174 174" xml:space="preserve">
<path fill-rule="evenodd" clip-rule="evenodd" fill="#FFFFFF" d="M72.5,105.3c0-1.8,0-34.3,0-35.6c0-1.7,1.9-2.9,3.9-1.9
	c1.5,0.8,32.2,16.4,34.8,17.7c1.7,0.9,1.7,3,0,3.9c-1.9,1-32.7,16.7-34.9,17.8C74.6,108,72.5,107.1,72.5,105.3z"/>
<path fill-rule="evenodd" clip-rule="evenodd" fill="none" stroke="#FFFFFF" stroke-width="8" stroke-miterlimit="10" d="M86.5,26.5
	c33.1,0,60,26.9,60,60c0,33.1-26.9,60-60,60s-60-26.9-60-60C26.5,53.4,53.4,26.5,86.5,26.5z"/>
</svg>
