<?xml version="1.0" encoding="utf-8"?>
<!-- Generator: Adobe Illustrator 18.1.1, SVG Export Plug-In . SVG Version: 6.00 Build 0)  -->
<svg version="1.1" id="Capa_1" xmlns="http://www.w3.org/2000/svg" xmlns:xlink="http://www.w3.org/1999/xlink" x="0px" y="0px"
	 viewBox="-40 0 670 639.9" enable-background="new -40 0 670 639.9" xml:space="preserve">
<path fill="#010101" d="M326.5,77.6c-0.6-0.1-1.2-0.1-1.8-0.1c-15.8,0-26.8,12.8-26.8,28.7c0,15.6,6.1,28.3,29.9,28.6v0.1
	c113.1,1.5,212,98.2,212,216.7c0,119.5-98.2,218.2-217.7,218.2c-114.1,0-208.8-86.1-217.1-199.2h50.3L77.6,241.4L0,370.6h47.6
	C56,513.4,175.5,627,321.2,627c151.1,0,274.1-123.6,274.1-274.7C595.3,202.9,475.2,80.5,326.5,77.6z"/>
<path fill="#010101" d="M351.6,211.1c0-13.5-10.8-25.1-24.3-25.1h-5.2c-13.5,0-24,11.6-24,25.1v144.1l-70.6,70.4
	c-10.4,10.4-9.9,27.3,0,37.7c9.9,10.5,27.2,10.5,37.6,0l78-78c0.6-0.7,1.1-1.3,1.7-1.9c4.3-4.4,6.9-10.4,6.9-17.1L351.6,211.1
	L351.6,211.1z"/>
</svg>
