<?xml version="1.0" encoding="utf-8"?>
<!-- Generator: Adobe Illustrator 18.1.1, SVG Export Plug-In . SVG Version: 6.00 Build 0)  -->
<svg version="1.1" id="Capa_1" xmlns="http://www.w3.org/2000/svg" xmlns:xlink="http://www.w3.org/1999/xlink" x="0px" y="0px"
	 viewBox="0 0 102.5 94.1" enable-background="new 0 0 102.5 94.1" xml:space="preserve">
<path opacity="0.7" fill-rule="evenodd" clip-rule="evenodd" fill="#010002" d="M52.6,3.9c23.2,0,42,18.8,42,42
	c0,23.2-18.8,42-42,42s-42-18.8-42-42C10.6,22.7,29.4,3.9,52.6,3.9z"/>
<path fill-rule="evenodd" clip-rule="evenodd" fill="#FFFFFF" d="M43.5,58.9c0-1.2,0-22.8,0-23.7c0-1.1,1.2-1.9,2.3-1.3
	c0.9,0.5,19.5,10.9,21.1,11.8c1,0.6,1,2,0,2.6C65.7,49,47.1,59.4,45.8,60.2C44.8,60.7,43.5,60.1,43.5,58.9z"/>
</svg>
