<?xml version="1.0" encoding="utf-8"?>
<!-- Generator: Adobe Illustrator 18.1.1, SVG Export Plug-In . SVG Version: 6.00 Build 0)  -->
<svg version="1.1" id="Capa_1" xmlns="http://www.w3.org/2000/svg" xmlns:xlink="http://www.w3.org/1999/xlink" x="0px" y="0px"
	 viewBox="0 0 48 48" enable-background="new 0 0 48 48" xml:space="preserve">
<g>
	<g>
		<path fill="#1B0088" d="M24,44.6C12.7,44.6,3.4,35.3,3.4,24S12.7,3.4,24,3.4c3.9,0,7.7,1.1,10.9,3.1c0.4,0.3,0.6,0.9,0.3,1.3
			c-0.3,0.4-0.9,0.6-1.3,0.3c-3-1.9-6.4-2.9-9.9-2.9C13.7,5.3,5.3,13.7,5.3,24S13.7,42.7,24,42.7S42.7,34.3,42.7,24
			c0-0.5,0.4-0.9,0.9-0.9s0.9,0.4,0.9,0.9C44.6,35.3,35.3,44.6,24,44.6z"/>
	</g>
	<g>
		<path fill="#1B0088" d="M24,27.8c-0.5,0-0.9-0.4-0.9-0.9V11.7c0-0.5,0.4-0.9,0.9-0.9s0.9,0.4,0.9,0.9v15.1
			C24.9,27.4,24.5,27.8,24,27.8z"/>
	</g>
	<g>
		<path fill="#1B0088" d="M21.6,25.9c-0.4,0-0.7-0.2-0.9-0.6c-0.2-0.5,0.1-1,0.6-1.2l12-4.3c0.5-0.2,1,0.1,1.2,0.6s-0.1,1-0.6,1.2
			l-12,4.3C21.8,25.8,21.7,25.9,21.6,25.9z"/>
	</g>
</g>
</svg>
