<?xml version="1.0" encoding="utf-8"?>
<!-- Generator: Adobe Illustrator 18.1.1, SVG Export Plug-In . SVG Version: 6.00 Build 0)  -->
<svg version="1.1" id="Capa_1" xmlns="http://www.w3.org/2000/svg" xmlns:xlink="http://www.w3.org/1999/xlink" x="0px" y="0px"
	 viewBox="0 0 48 48" enable-background="new 0 0 48 48" xml:space="preserve">
<g>
	<g>
		<circle fill="#1B0088" cx="23.1" cy="11.6" r="1.5"/>
	</g>
	<g>
		<path fill="#1B0088" d="M18.9,43.3c-0.1,0-0.2,0-0.4-0.1c-0.3-0.1-0.6-0.5-0.6-0.8v-8.8H4.1c-0.2,0-0.5-0.1-0.6-0.3
			c-0.2-0.2-0.3-0.4-0.3-0.6V8.8c0-2.8,1.9-4.6,4.6-4.6h35.3c0.5,0,0.9,0.4,0.9,0.9v24c0,1.4-0.4,2.5-1.2,3.3s-1.9,1.2-3.3,1.2H28.7
			c-0.5,0-0.9-0.4-0.9-0.9s0.4-0.9,0.9-0.9h10.8c0.9,0,1.6-0.2,2-0.7c0.5-0.4,0.7-1.1,0.7-2V6L7.9,6C6.1,6,5.1,7.1,5.1,8.8v22.9
			h13.8c0.2,0,0.5,0.1,0.6,0.3c0.2,0.2,0.3,0.4,0.3,0.6v7.6l4.3-4.1c0.4-0.3,0.9-0.3,1.3,0c0.3,0.4,0.3,0.9,0,1.3L19.6,43
			C19.3,43.2,19.1,43.3,18.9,43.3z"/>
	</g>
	<g>
		<path fill="#1B0088" d="M23.7,27.6L23.7,27.6c-0.5,0-0.9-0.4-0.9-0.9v-9.2h-3.2c-0.5,0-0.9-0.4-0.9-0.9s0.4-0.9,0.9-0.9l0,0h4.1
			c0.2,0,0.5,0.1,0.6,0.3c0.2,0.2,0.3,0.4,0.3,0.6v10.1C24.6,27.2,24.2,27.6,23.7,27.6z"/>
	</g>
	<g>
		<path fill="#1B0088" d="M27.7,27.7L27.7,27.7h-8.1c-0.5,0-0.9-0.4-0.9-0.9s0.4-0.9,0.9-0.9l0,0h8.1c0.5,0,0.9,0.4,0.9,0.9
			C28.6,27.3,28.2,27.7,27.7,27.7z"/>
	</g>
</g>
</svg>
