<?xml version="1.0" encoding="UTF-8" standalone="no"?>
<svg width="44px" height="352px" viewBox="0 0 44 352" version="1.1" xmlns="http://www.w3.org/2000/svg" xmlns:xlink="http://www.w3.org/1999/xlink">
    <!-- Generator: Sketch 3.8.3 (29802) - http://www.bohemiancoding.com/sketch -->
    <title>Group 2</title>
    <desc>Created with Sketch.</desc>
    <defs></defs>
    <g id="Page-1" stroke="none" stroke-width="1" fill="none" fill-rule="evenodd">
        <g id="Group-2">
            <g id="blog-01">
                <g id="Capa_1">
                    <g id="Group">
                        <path d="M42.9,43.8166667 L1.1,43.8166667 C0.55,43.8166667 0.183333333,43.45 0.183333333,42.9 L0.183333333,1.1 C0.183333333,0.55 0.55,0.183333333 1.1,0.183333333 L42.9,0.183333333 C43.45,0.183333333 43.8166667,0.55 43.8166667,1.1 L43.8166667,42.9 C43.8166667,43.45 43.45,43.8166667 42.9,43.8166667 L42.9,43.8166667 Z" id="Shape" fill="#E72369"></path>
                        <g transform="translate(11.000000, 11.000000)">
                            <path d="M5.59166667,16.8666667 C6.05,17.325 6.41666667,18.0583333 6.41666667,18.7916667 C6.41666667,19.525 6.14166667,20.2583333 5.59166667,20.7166667 L5.59166667,20.7166667 C5.13333333,21.175 4.4,21.5416667 3.66666667,21.5416667 C2.93333333,21.5416667 2.2,21.2666667 1.74166667,20.7166667 C1.28333333,20.2583333 0.916666667,19.525 0.916666667,18.7916667 C0.916666667,18.0583333 1.19166667,17.325 1.74166667,16.8666667 L1.74166667,16.8666667 C2.2,16.4083333 2.93333333,16.0416667 3.66666667,16.0416667 C4.4,16.0416667 5.13333333,16.4083333 5.59166667,16.8666667 L5.59166667,16.8666667 Z M0.916666667,7.975 L0.916666667,11.9166667 C3.48333333,11.9166667 5.95833333,12.925 7.7,14.7583333 C9.53333333,16.5916667 10.5416667,18.975 10.5416667,21.5416667 L10.5416667,21.5416667 L10.5416667,21.5416667 L14.4833333,21.5416667 C14.4833333,17.7833333 12.925,14.3916667 10.45,11.9166667 C8.06666667,9.44166667 4.675,7.975 0.916666667,7.975 L0.916666667,7.975 Z M0.916666667,0.916666667 L0.916666667,4.85833333 C10.0833333,4.85833333 17.6,12.375 17.6,21.5416667 L21.5416667,21.5416667 C21.5416667,15.8583333 19.25,10.725 15.4916667,6.96666667 C11.7333333,3.20833333 6.6,0.916666667 0.916666667,0.916666667 L0.916666667,0.916666667 Z" id="RSS_1_" fill="#676767"></path>
                            <path d="M5.13333333,16.4083333 C5.59166667,16.8666667 5.95833333,17.6 5.95833333,18.3333333 C5.95833333,19.0666667 5.68333333,19.8 5.13333333,20.2583333 L5.13333333,20.2583333 C4.58333333,20.7166667 3.94166667,21.0833333 3.20833333,21.0833333 C2.475,21.0833333 1.74166667,20.8083333 1.28333333,20.2583333 C0.825,19.8 0.458333333,19.0666667 0.458333333,18.3333333 C0.458333333,17.6 0.733333333,16.8666667 1.28333333,16.4083333 L1.28333333,16.4083333 C1.74166667,15.95 2.475,15.5833333 3.20833333,15.5833333 C3.94166667,15.5833333 4.58333333,15.8583333 5.13333333,16.4083333 L5.13333333,16.4083333 Z M0.458333333,7.425 L0.458333333,11.3666667 C3.025,11.3666667 5.5,12.375 7.24166667,14.2083333 C9.075,16.0416667 10.0833333,18.425 10.0833333,20.9916667 L10.0833333,20.9916667 L10.0833333,20.9916667 L14.025,20.9916667 C14.025,17.2333333 12.4666667,13.8416667 9.99166667,11.3666667 C7.60833333,8.98333333 4.21666667,7.425 0.458333333,7.425 L0.458333333,7.425 Z M0.458333333,0.458333333 L0.458333333,4.4 C9.625,4.4 17.1416667,11.9166667 17.1416667,21.0833333 L21.0833333,21.0833333 C21.0833333,15.4 18.7916667,10.2666667 15.0333333,6.50833333 C11.275,2.75 6.14166667,0.458333333 0.458333333,0.458333333 L0.458333333,0.458333333 Z" id="RSS_4_" fill="#FFFFFF"></path>
                        </g>
                    </g>
                </g>
            </g>
            <g id="facebook-01" transform="translate(0.000000, 44.000000)">
                <g id="Capa_1">
                    <g id="Group">
                        <path d="M42.9,43.8166667 L1.1,43.8166667 C0.55,43.8166667 0.183333333,43.45 0.183333333,42.9 L0.183333333,1.1 C0.183333333,0.55 0.55,0.183333333 1.1,0.183333333 L42.9,0.183333333 C43.45,0.183333333 43.8166667,0.55 43.8166667,1.1 L43.8166667,42.9 C43.8166667,43.45 43.45,43.8166667 42.9,43.8166667 L42.9,43.8166667 Z" id="Shape" fill="#E72369"></path>
                        <g transform="translate(15.583333, 10.083333)">
                            <path d="M3.575,5.40833333 L3.575,8.61666667 L1.28333333,8.61666667 L1.28333333,12.5583333 L3.575,12.5583333 L3.575,23.375 L8.34166667,23.375 L8.34166667,12.5583333 L11.55,12.5583333 C11.55,12.5583333 11.825,10.6333333 12.0083333,8.61666667 L8.34166667,8.61666667 L8.34166667,5.95833333 C8.34166667,5.59166667 8.89166667,5.04166667 9.35,5.04166667 L11.9166667,5.04166667 L11.9166667,0.916666667 L8.34166667,0.916666667 C3.48333333,0.916666667 3.575,4.85833333 3.575,5.40833333 L3.575,5.40833333 Z" id="Facebook_1_" fill="#676767"></path>
                            <path d="M3.11666667,4.95 L3.11666667,8.15833333 L0.825,8.15833333 L0.825,12.1 L3.11666667,12.1 L3.11666667,22.9166667 L7.88333333,22.9166667 L7.88333333,12.1 L11.0916667,12.1 C11.0916667,12.1 11.3666667,10.175 11.55,8.15833333 L7.88333333,8.15833333 L7.88333333,5.5 C7.88333333,5.13333333 8.43333333,4.58333333 8.89166667,4.58333333 L11.4583333,4.58333333 L11.4583333,0.458333333 L7.88333333,0.458333333 C3.025,0.458333333 3.11666667,4.4 3.11666667,4.95 L3.11666667,4.95 Z" id="Facebook_3_" fill="#FFFFFF"></path>
                        </g>
                    </g>
                </g>
            </g>
            <g id="google-01" transform="translate(0.000000, 88.000000)">
                <g id="Capa_1">
                    <g id="Group">
                        <path d="M42.9,43.8166667 L1.1,43.8166667 C0.55,43.8166667 0.183333333,43.45 0.183333333,42.9 L0.183333333,1.1 C0.183333333,0.55 0.55,0.183333333 1.1,0.183333333 L42.9,0.183333333 C43.45,0.183333333 43.8166667,0.55 43.8166667,1.1 L43.8166667,42.9 C43.8166667,43.45 43.45,43.8166667 42.9,43.8166667 L42.9,43.8166667 Z" id="Shape" fill="#E72369"></path>
                        <g transform="translate(10.083333, 10.083333)" id="Shape">
                            <g transform="translate(0.000000, 0.916667)" fill="#676767">
                                <polygon points="20.2583333 3.66666667 20.2583333 -1.77635684e-15 18.7 -1.77635684e-15 18.7 3.66666667 15.0333333 3.66666667 15.0333333 5.225 18.7 5.225 18.7 8.98333333 20.2583333 8.98333333 20.2583333 5.225 23.925 5.225 23.925 3.66666667"></polygon>
                                <path d="M13.6583333,14.4833333 C13.475,14.2083333 13.2,13.8416667 12.8333333,13.5666667 C12.5583333,13.2916667 12.1916667,13.0166667 11.9166667,12.7416667 L10.9083333,11.9166667 C10.725,11.7333333 10.5416667,11.6416667 10.45,11.4583333 C10.175,11.275 10.0833333,11 10.0833333,10.6333333 C10.0833333,10.2666667 10.175,9.99166667 10.3583333,9.80833333 C10.5416667,9.625 10.725,9.35 10.9083333,9.16666667 C11.1833333,8.89166667 11.55,8.70833333 11.825,8.43333333 C12.1,8.15833333 12.375,7.88333333 12.65,7.51666667 C12.925,7.15 13.1083333,6.78333333 13.2,6.41666667 C13.2916667,6.05 13.3833333,5.5 13.3833333,4.95 C13.3833333,4.4 13.2916667,3.94166667 13.1083333,3.48333333 C12.925,3.025 12.7416667,2.65833333 12.5583333,2.38333333 C12.375,2.01666667 12.1,1.74166667 11.9166667,1.55833333 C11.6416667,1.375 11.4583333,1.19166667 11.275,1.00833333 L13.1083333,1.00833333 L14.9416667,1.77635684e-15 L8.89166667,1.77635684e-15 C8.06666667,1.77635684e-15 7.24166667,0.0916666667 6.325,0.275 C5.40833333,0.458333333 4.49166667,0.916666667 3.66666667,1.55833333 C3.025,2.10833333 2.56666667,2.75 2.29166667,3.39166667 C2.01666667,4.125 1.83333333,4.76666667 1.83333333,5.5 C1.83333333,6.05 1.925,6.6 2.2,7.15 C2.38333333,7.7 2.75,8.15833333 3.11666667,8.61666667 C3.48333333,9.075 4.03333333,9.35 4.675,9.625 C5.31666667,9.9 5.95833333,9.99166667 6.78333333,9.99166667 L7.24166667,9.99166667 L7.7,9.99166667 C7.60833333,10.175 7.51666667,10.3583333 7.51666667,10.5416667 C7.33333333,10.8166667 7.33333333,11 7.33333333,11.275 C7.33333333,11.7333333 7.425,12.1 7.60833333,12.375 C7.79166667,12.65 7.975,12.925 8.25,13.2 C7.88333333,13.2 7.51666667,13.2916667 7.05833333,13.2916667 C6.6,13.2916667 6.14166667,13.3833333 5.59166667,13.475 C5.04166667,13.5666667 4.58333333,13.75 4.03333333,13.8416667 C3.48333333,14.025 3.025,14.2083333 2.56666667,14.4833333 C1.74166667,15.0333333 1.1,15.5833333 0.825,16.225 C0.55,16.8666667 0.366666667,17.5083333 0.366666667,18.0583333 C0.366666667,18.6083333 0.458333333,19.1583333 0.733333333,19.6166667 C1.00833333,20.075 1.375,20.5333333 1.925,20.9916667 C2.475,21.3583333 3.11666667,21.725 3.94166667,21.9083333 C4.76666667,22.1833333 5.68333333,22.275 6.69166667,22.275 C7.975,22.275 9.075,22.0916667 9.99166667,21.8166667 C11,21.45 11.7333333,21.0833333 12.375,20.5333333 C13.0166667,19.9833333 13.475,19.4333333 13.8416667,18.7916667 C14.2083333,18.15 14.3,17.4166667 14.3,16.775 C14.3,16.225 14.2083333,15.8583333 14.1166667,15.4 C14.025,15.125 13.8416667,14.7583333 13.6583333,14.4833333 L13.6583333,14.4833333 Z M8.06666667,9.35 C7.425,9.35 6.875,9.16666667 6.41666667,8.8 C5.95833333,8.43333333 5.59166667,7.975 5.225,7.425 C4.95,6.875 4.675,6.325 4.58333333,5.68333333 C4.4,5.04166667 4.4,4.49166667 4.4,4.03333333 C4.4,3.66666667 4.4,3.3 4.49166667,2.84166667 C4.58333333,2.475 4.76666667,2.10833333 5.04166667,1.83333333 C5.31666667,1.55833333 5.59166667,1.28333333 5.95833333,1.1 C6.325,0.916666667 6.69166667,0.825 7.05833333,0.825 C7.7,0.825 8.15833333,1.00833333 8.61666667,1.375 C9.075,1.74166667 9.44166667,2.2 9.80833333,2.75 C10.0833333,3.3 10.3583333,3.85 10.5416667,4.49166667 C10.725,5.13333333 10.8166667,5.68333333 10.8166667,6.23333333 C10.8166667,6.50833333 10.8166667,6.875 10.725,7.24166667 C10.6333333,7.7 10.45,8.06666667 10.0833333,8.34166667 C9.80833333,8.61666667 9.53333333,8.8 9.16666667,8.89166667 C8.8,9.25833333 8.43333333,9.35 8.06666667,9.35 L8.06666667,9.35 Z M11.275,20.2583333 C10.5416667,20.8083333 9.44166667,21.175 8.06666667,21.175 C6.50833333,21.175 5.225,20.8083333 4.30833333,20.1666667 C3.39166667,19.525 2.93333333,18.6083333 2.93333333,17.6 C2.93333333,17.05 3.025,16.5916667 3.20833333,16.3166667 C3.39166667,15.95 3.66666667,15.675 3.94166667,15.4 C4.21666667,15.125 4.49166667,14.9416667 4.76666667,14.85 C5.04166667,14.7583333 5.31666667,14.6666667 5.40833333,14.575 C5.68333333,14.4833333 6.05,14.3916667 6.41666667,14.3 C6.78333333,14.2083333 7.05833333,14.2083333 7.33333333,14.1166667 C7.60833333,14.1166667 7.88333333,14.025 8.06666667,14.025 L8.43333333,14.025 L8.8,14.025 L9.075,14.025 C9.625,14.3916667 10.0833333,14.7583333 10.5416667,15.125 C10.9083333,15.4 11.275,15.7666667 11.55,16.0416667 C11.825,16.3166667 12.0083333,16.5916667 12.1,16.9583333 C12.1916667,17.2333333 12.2833333,17.6 12.2833333,17.9666667 C12.4666667,18.8833333 12.1,19.7083333 11.275,20.2583333 L11.275,20.2583333 Z"></path>
                            </g>
                            <g fill="#FFFFFF">
                                <polygon points="19.8 4.21666667 19.8 0.55 18.2416667 0.55 18.2416667 4.21666667 14.575 4.21666667 14.575 5.775 18.2416667 5.775 18.2416667 9.44166667 19.8 9.44166667 19.8 5.775 23.4666667 5.775 23.4666667 4.21666667"></polygon>
                                <path d="M13.2,14.9416667 C13.0166667,14.6666667 12.7416667,14.3 12.375,14.025 C12.1,13.75 11.7333333,13.475 11.4583333,13.2 L10.3583333,12.375 C10.175,12.1916667 9.99166667,12.1 9.9,11.9166667 C9.71666667,11.7333333 9.625,11.4583333 9.625,11.0916667 C9.625,10.725 9.71666667,10.45 9.9,10.2666667 C10.0833333,10.0833333 10.2666667,9.80833333 10.45,9.625 C10.725,9.35 11.0916667,9.16666667 11.3666667,8.89166667 C11.6416667,8.61666667 11.9166667,8.34166667 12.1916667,7.975 C12.4666667,7.60833333 12.65,7.24166667 12.7416667,6.875 C12.8333333,6.50833333 12.925,5.95833333 12.925,5.40833333 C12.925,4.85833333 12.8333333,4.4 12.65,3.94166667 C12.4666667,3.48333333 12.2833333,3.11666667 12.1,2.84166667 C11.9166667,2.475 11.6416667,2.2 11.4583333,2.01666667 C11.1833333,1.83333333 11,1.65 10.8166667,1.46666667 L12.65,1.46666667 L14.4833333,0.458333333 L8.43333333,0.458333333 C7.60833333,0.458333333 6.78333333,0.55 5.86666667,0.733333333 C4.95,0.916666667 4.03333333,1.375 3.20833333,2.01666667 C2.56666667,2.56666667 2.10833333,3.20833333 1.83333333,3.85 C1.55833333,4.58333333 1.375,5.225 1.375,5.95833333 C1.375,6.50833333 1.46666667,7.05833333 1.74166667,7.60833333 C1.925,8.15833333 2.29166667,8.61666667 2.65833333,9.075 C3.025,9.53333333 3.575,9.80833333 4.21666667,10.0833333 C4.85833333,10.3583333 5.5,10.45 6.325,10.45 L6.78333333,10.45 L7.24166667,10.45 C7.15,10.6333333 7.05833333,10.8166667 7.05833333,11 C6.96666667,11.1833333 6.96666667,11.3666667 6.96666667,11.6416667 C6.96666667,12.1 7.05833333,12.4666667 7.24166667,12.7416667 C7.425,13.0166667 7.60833333,13.2916667 7.88333333,13.5666667 C7.51666667,13.5666667 7.15,13.6583333 6.69166667,13.6583333 C6.23333333,13.6583333 5.775,13.75 5.225,13.8416667 C4.675,13.9333333 4.21666667,14.1166667 3.66666667,14.2083333 C3.11666667,14.3916667 2.65833333,14.575 2.2,14.85 C1.375,15.4 0.733333333,15.95 0.458333333,16.5916667 C0.183333333,17.2333333 -1.77635684e-15,17.875 -1.77635684e-15,18.425 C-1.77635684e-15,18.975 0.0916666667,19.525 0.366666667,19.9833333 C0.641666667,20.4416667 1.00833333,20.9 1.55833333,21.3583333 C2.10833333,21.725 2.75,22.0916667 3.575,22.275 C4.4,22.55 5.31666667,22.6416667 6.325,22.6416667 C7.60833333,22.6416667 8.70833333,22.4583333 9.625,22.1833333 C10.6333333,21.8166667 11.3666667,21.45 12.0083333,20.9 C12.65,20.35 13.1083333,19.8 13.475,19.1583333 C13.8416667,18.5166667 13.9333333,17.7833333 13.9333333,17.1416667 C13.9333333,16.5916667 13.8416667,16.225 13.75,15.7666667 C13.5666667,15.5833333 13.3833333,15.2166667 13.2,14.9416667 L13.2,14.9416667 Z M7.60833333,9.80833333 C6.96666667,9.80833333 6.41666667,9.625 5.95833333,9.25833333 C5.5,8.89166667 5.13333333,8.43333333 4.76666667,7.88333333 C4.49166667,7.33333333 4.21666667,6.78333333 4.125,6.14166667 C3.94166667,5.5 3.94166667,4.95 3.94166667,4.49166667 C3.94166667,4.125 3.94166667,3.75833333 4.03333333,3.3 C4.125,2.93333333 4.30833333,2.56666667 4.58333333,2.29166667 C4.85833333,2.01666667 5.13333333,1.74166667 5.5,1.55833333 C5.86666667,1.375 6.23333333,1.28333333 6.6,1.28333333 C7.24166667,1.28333333 7.7,1.46666667 8.15833333,1.83333333 C8.61666667,2.2 8.98333333,2.65833333 9.35,3.20833333 C9.625,3.75833333 9.9,4.30833333 10.0833333,4.95 C10.2666667,5.59166667 10.3583333,6.14166667 10.3583333,6.69166667 C10.3583333,6.96666667 10.3583333,7.33333333 10.2666667,7.7 C10.175,8.15833333 9.99166667,8.525 9.625,8.8 C9.35,9.075 9.075,9.25833333 8.70833333,9.35 C8.34166667,9.80833333 7.975,9.80833333 7.60833333,9.80833333 L7.60833333,9.80833333 Z M10.9083333,20.7166667 C10.175,21.2666667 9.075,21.6333333 7.7,21.6333333 C6.14166667,21.6333333 4.85833333,21.2666667 3.94166667,20.625 C3.025,19.9833333 2.56666667,19.0666667 2.56666667,18.0583333 C2.56666667,17.5083333 2.65833333,17.05 2.84166667,16.775 C3.025,16.4083333 3.3,16.1333333 3.575,15.8583333 C3.85,15.5833333 4.125,15.4 4.4,15.3083333 C4.675,15.2166667 4.95,15.125 5.04166667,15.0333333 C5.31666667,14.9416667 5.68333333,14.85 6.05,14.7583333 C6.41666667,14.6666667 6.69166667,14.6666667 6.96666667,14.575 C7.24166667,14.575 7.51666667,14.4833333 7.7,14.4833333 L8.06666667,14.4833333 L8.43333333,14.4833333 L8.70833333,14.4833333 C9.25833333,14.85 9.71666667,15.2166667 10.175,15.5833333 C10.5416667,15.8583333 10.9083333,16.225 11.1833333,16.5 C11.4583333,16.775 11.6416667,17.05 11.7333333,17.4166667 C11.825,17.6916667 11.9166667,18.0583333 11.9166667,18.425 C12.0083333,19.4333333 11.6416667,20.1666667 10.9083333,20.7166667 L10.9083333,20.7166667 Z"></path>
                            </g>
                        </g>
                    </g>
                </g>
            </g>
            <g id="instagram-01" transform="translate(0.000000, 132.000000)">
                <g id="Capa_1">
                    <g id="Group">
                        <path d="M42.9,43.8166667 L1.1,43.8166667 C0.55,43.8166667 0.183333333,43.45 0.183333333,42.9 L0.183333333,1.1 C0.183333333,0.55 0.55,0.183333333 1.1,0.183333333 L42.9,0.183333333 C43.45,0.183333333 43.8166667,0.55 43.8166667,1.1 L43.8166667,42.9 C43.8166667,43.45 43.45,43.8166667 42.9,43.8166667 L42.9,43.8166667 Z" id="Shape" fill="#E72369"></path>
                        <g transform="translate(9.166667, 9.166667)" id="Shape">
                            <path d="M20.8083333,1.28333333 L5.31666667,1.28333333 C2.93333333,1.28333333 0.916666667,3.20833333 0.916666667,5.59166667 L0.916666667,20.625 C0.916666667,23.0083333 2.93333333,24.9333333 5.31666667,24.9333333 L20.8083333,24.9333333 C23.1916667,24.9333333 25.2083333,23.0083333 25.2083333,20.625 L25.2083333,5.59166667 C25.2083333,3.20833333 23.1916667,1.28333333 20.8083333,1.28333333 L20.8083333,1.28333333 Z M17.9666667,4.58333333 C17.9666667,4.03333333 18.425,3.66666667 18.975,3.66666667 L21.9083333,3.66666667 C22.3666667,3.66666667 22.825,3.94166667 22.9166667,4.49166667 L22.9166667,4.675 L22.9166667,7.425 C22.9166667,7.88333333 22.55,8.25 22.0916667,8.34166667 L21.9083333,8.34166667 L20.4416667,8.34166667 L18.975,8.34166667 C18.5166667,8.34166667 18.0583333,8.06666667 17.9666667,7.51666667 L17.9666667,7.425 L17.9666667,4.58333333 L17.9666667,4.58333333 Z M13.1083333,8.25 C15.7666667,8.25 17.9666667,10.3583333 17.9666667,12.925 C17.9666667,15.4916667 15.7666667,17.5083333 13.1083333,17.5083333 C10.45,17.5083333 8.25,15.4 8.25,12.925 C8.15833333,10.3583333 10.3583333,8.25 13.1083333,8.25 L13.1083333,8.25 Z M22.825,11.1833333 L22.825,19.4333333 L22.825,21.2666667 C22.825,21.725 22.55,22.0916667 22.0916667,22.1833333 L21.8166667,22.1833333 L13.3833333,22.1833333 L4.4,22.1833333 C4.30833333,22.1833333 4.125,22.1833333 4.03333333,22.0916667 C3.66666667,22 3.39166667,21.6333333 3.39166667,21.2666667 L3.39166667,21.0833333 L3.39166667,11.0916667 L3.39166667,11 L5.59166667,11 C5.13333333,12.925 5.31666667,14.7583333 6.325,16.5 C7.05833333,17.6916667 8.06666667,18.7 9.35,19.3416667 C10.6333333,19.9833333 12.0083333,20.35 13.475,20.2583333 C15.95,20.1666667 17.875,19.0666667 19.3416667,17.2333333 C20.8083333,15.3083333 21.175,13.2916667 20.625,11 L22.825,11 C22.825,11.0916667 22.825,11.1833333 22.825,11.1833333 L22.825,11.1833333 Z" fill="#676767"></path>
                            <path d="M20.35,0.825 L4.85833333,0.825 C2.475,0.825 0.458333333,2.75 0.458333333,5.13333333 L0.458333333,20.1666667 C0.458333333,22.55 2.475,24.475 4.85833333,24.475 L20.35,24.475 C22.7333333,24.475 24.75,22.55 24.75,20.1666667 L24.75,5.04166667 C24.75,2.75 22.7333333,0.825 20.35,0.825 L20.35,0.825 Z M17.5083333,4.125 C17.5083333,3.575 17.9666667,3.20833333 18.5166667,3.20833333 L21.45,3.20833333 C21.9083333,3.20833333 22.3666667,3.48333333 22.4583333,4.03333333 L22.4583333,4.21666667 L22.4583333,6.96666667 C22.4583333,7.425 22.0916667,7.79166667 21.6333333,7.88333333 L21.45,7.88333333 L19.9833333,7.88333333 L18.5166667,7.88333333 C18.0583333,7.88333333 17.6,7.60833333 17.5083333,7.05833333 L17.5083333,6.96666667 L17.5083333,4.125 L17.5083333,4.125 Z M12.5583333,7.79166667 C15.2166667,7.79166667 17.4166667,9.9 17.4166667,12.4666667 C17.4166667,15.0333333 15.2166667,17.05 12.5583333,17.05 C9.9,17.05 7.7,14.9416667 7.7,12.4666667 C7.7,9.9 9.9,7.79166667 12.5583333,7.79166667 L12.5583333,7.79166667 Z M22.3666667,10.725 L22.3666667,18.975 L22.3666667,20.8083333 C22.3666667,21.2666667 22.0916667,21.6333333 21.6333333,21.725 L21.3583333,21.725 L12.925,21.725 L3.94166667,21.725 C3.85,21.725 3.66666667,21.725 3.575,21.6333333 C3.20833333,21.5416667 2.93333333,21.175 2.93333333,20.8083333 L2.93333333,20.625 L2.93333333,10.6333333 L2.93333333,10.5416667 L5.13333333,10.5416667 C4.675,12.4666667 4.85833333,14.3 5.86666667,16.0416667 C6.6,17.2333333 7.60833333,18.2416667 8.89166667,18.8833333 C10.175,19.525 11.55,19.8916667 13.0166667,19.8 C15.4916667,19.7083333 17.4166667,18.6083333 18.8833333,16.775 C20.35,14.85 20.7166667,12.8333333 20.1666667,10.5416667 L22.3666667,10.5416667 C22.3666667,10.6333333 22.3666667,10.6333333 22.3666667,10.725 L22.3666667,10.725 Z" fill="#FFFFFF"></path>
                        </g>
                    </g>
                </g>
            </g>
            <g id="linkedin-01" transform="translate(0.000000, 176.000000)">
                <g id="Capa_1">
                    <g id="Group">
                        <path d="M42.9,43.8166667 L1.1,43.8166667 C0.641666667,43.8166667 0.183333333,43.45 0.183333333,42.9 L0.183333333,1.1 C0.183333333,0.641666667 0.55,0.183333333 1.1,0.183333333 L42.9,0.183333333 C43.3583333,0.183333333 43.8166667,0.55 43.8166667,1.1 L43.8166667,42.9 C43.8166667,43.45 43.45,43.8166667 42.9,43.8166667 L42.9,43.8166667 Z" id="Shape" fill="#E72369"></path>
                        <g transform="translate(11.000000, 11.916667)" id="Shape">
                            <path d="M5.59166667,19.6166667 L1.65,19.6166667 L1.65,6.96666667 L5.59166667,6.96666667 L5.59166667,19.6166667 L5.59166667,19.6166667 Z M3.48333333,5.40833333 L3.48333333,5.40833333 C2.01666667,5.40833333 1.1,4.4 1.1,3.20833333 C1.1,1.925 2.01666667,1.00833333 3.48333333,1.00833333 C4.95,1.00833333 5.86666667,1.925 5.86666667,3.20833333 C5.86666667,4.4 4.95,5.40833333 3.48333333,5.40833333 L3.48333333,5.40833333 Z M21.3583333,19.6166667 L16.8666667,19.6166667 L16.8666667,13.1083333 C16.8666667,11.3666667 16.1333333,10.2666667 14.6666667,10.2666667 C13.475,10.2666667 12.8333333,11.0916667 12.5583333,11.825 C12.4666667,12.1 12.4666667,12.4666667 12.4666667,12.8333333 L12.4666667,19.7083333 L8.06666667,19.7083333 C8.06666667,19.7083333 8.15833333,8.15833333 8.06666667,7.05833333 L12.4666667,7.05833333 L12.4666667,9.075 C12.7416667,8.25 14.1166667,6.96666667 16.4083333,6.96666667 C19.25,6.96666667 21.45,8.8 21.45,12.65 L21.45,19.6166667 L21.3583333,19.6166667 Z" fill="#676767"></path>
                            <path d="M5.13333333,19.1583333 L1.19166667,19.1583333 L1.19166667,6.50833333 L5.13333333,6.50833333 L5.13333333,19.1583333 L5.13333333,19.1583333 Z M3.025,4.95 L3.025,4.95 C1.55833333,4.95 0.641666667,3.94166667 0.641666667,2.75 C0.641666667,1.46666667 1.55833333,0.55 3.025,0.55 C4.49166667,0.55 5.40833333,1.46666667 5.40833333,2.75 C5.40833333,3.94166667 4.49166667,4.95 3.025,4.95 L3.025,4.95 Z M20.9,19.1583333 L16.4083333,19.1583333 L16.4083333,12.65 C16.4083333,10.9083333 15.675,9.80833333 14.2083333,9.80833333 C13.0166667,9.80833333 12.375,10.6333333 12.1,11.3666667 C11.9166667,11.55 11.9166667,11.9166667 11.9166667,12.2833333 L11.9166667,19.1583333 L7.51666667,19.1583333 C7.51666667,19.1583333 7.60833333,7.60833333 7.51666667,6.50833333 L11.9166667,6.50833333 L11.9166667,8.525 C12.1916667,7.7 13.5666667,6.41666667 15.8583333,6.41666667 C18.7,6.41666667 20.9,8.25 20.9,12.1 L20.9,19.1583333 L20.9,19.1583333 Z" fill="#FFFFFF"></path>
                        </g>
                    </g>
                </g>
            </g>
            <g id="pinterest-01" transform="translate(0.000000, 220.000000)">
                <g id="Capa_1">
                    <g id="Group">
                        <path d="M42.9,43.8166667 L1.1,43.8166667 C0.55,43.8166667 0.183333333,43.45 0.183333333,42.9 L0.183333333,1.1 C0.183333333,0.55 0.55,0.183333333 1.1,0.183333333 L42.9,0.183333333 C43.45,0.183333333 43.8166667,0.55 43.8166667,1.1 L43.8166667,42.9 C43.8166667,43.45 43.45,43.8166667 42.9,43.8166667 L42.9,43.8166667 Z" id="Shape" fill="#E72369"></path>
                        <g transform="translate(11.916667, 9.166667)" id="Shape">
                            <path d="M10.9083333,0.733333333 C4.21666667,0.733333333 0.825,5.59166667 0.825,9.53333333 C0.825,12.0083333 1.74166667,14.1166667 3.75833333,14.9416667 C4.125,15.0333333 4.4,14.9416667 4.49166667,14.575 C4.58333333,14.3 4.675,13.6583333 4.76666667,13.475 C4.85833333,13.1083333 4.85833333,13.0166667 4.58333333,12.65 C4.03333333,12.0083333 3.66666667,11.0916667 3.66666667,9.9 C3.66666667,6.325 6.325,3.11666667 10.6333333,3.11666667 C14.3916667,3.11666667 16.5,5.40833333 16.5,8.525 C16.5,12.65 14.6666667,16.0416667 12.0083333,16.0416667 C10.5416667,16.0416667 9.44166667,14.85 9.80833333,13.2916667 C10.2666667,11.4583333 11.0916667,9.53333333 11.0916667,8.25 C11.0916667,7.05833333 10.45,6.14166667 9.16666667,6.14166667 C7.60833333,6.14166667 6.41666667,7.7 6.41666667,9.80833333 C6.41666667,11.1833333 6.875,12.0083333 6.875,12.0083333 C6.875,12.0083333 5.31666667,18.6083333 5.04166667,19.7083333 C4.49166667,22 4.95,24.8416667 5.04166667,25.1166667 C5.04166667,25.3 5.31666667,25.3 5.40833333,25.2083333 C5.59166667,25.025 7.33333333,22.825 7.975,20.5333333 C8.15833333,19.8916667 8.98333333,16.6833333 8.98333333,16.6833333 C9.44166667,17.6 10.9083333,18.425 12.4666667,18.425 C17.05,18.425 20.075,14.3 20.075,8.70833333 C19.8916667,4.675 16.3166667,0.733333333 10.9083333,0.733333333 L10.9083333,0.733333333 Z" fill="#676767"></path>
                            <path d="M10.45,0.275 C3.75833333,0.275 0.366666667,5.13333333 0.366666667,9.075 C0.366666667,11.55 1.28333333,13.6583333 3.3,14.4833333 C3.66666667,14.575 3.94166667,14.4833333 4.03333333,14.1166667 C4.125,13.8416667 4.21666667,13.2 4.30833333,13.0166667 C4.4,12.65 4.4,12.5583333 4.125,12.1916667 C3.575,11.55 3.20833333,10.6333333 3.20833333,9.44166667 C3.20833333,5.86666667 5.86666667,2.65833333 10.175,2.65833333 C13.9333333,2.65833333 16.0416667,4.95 16.0416667,8.06666667 C16.0416667,12.1916667 14.2083333,15.5833333 11.55,15.5833333 C10.0833333,15.5833333 8.98333333,14.3916667 9.35,12.8333333 C9.80833333,11 10.6333333,9.075 10.6333333,7.79166667 C10.6333333,6.6 9.99166667,5.68333333 8.70833333,5.68333333 C7.15,5.68333333 5.95833333,7.24166667 5.95833333,9.35 C5.95833333,10.725 6.41666667,11.55 6.41666667,11.55 C6.41666667,11.55 4.85833333,18.15 4.58333333,19.25 C4.03333333,21.5416667 4.49166667,24.3833333 4.58333333,24.6583333 C4.58333333,24.8416667 4.85833333,24.8416667 4.95,24.75 C5.13333333,24.5666667 6.875,22.3666667 7.51666667,20.075 C7.7,19.4333333 8.525,16.225 8.525,16.225 C8.98333333,17.1416667 10.45,17.9666667 12.0083333,17.9666667 C16.5916667,17.9666667 19.6166667,13.8416667 19.6166667,8.25 C19.3416667,4.21666667 15.8583333,0.275 10.45,0.275 L10.45,0.275 Z" fill="#FFFFFF"></path>
                        </g>
                    </g>
                </g>
            </g>
            <g id="twitter-01" transform="translate(0.000000, 264.000000)">
                <g id="Capa_1">
                    <g id="Group">
                        <path d="M42.9,43.8166667 L1.1,43.8166667 C0.55,43.8166667 0.183333333,43.45 0.183333333,42.9 L0.183333333,1.1 C0.183333333,0.55 0.55,0.183333333 1.1,0.183333333 L42.9,0.183333333 C43.45,0.183333333 43.8166667,0.55 43.8166667,1.1 L43.8166667,42.9 C43.8166667,43.45 43.45,43.8166667 42.9,43.8166667 L42.9,43.8166667 Z" id="Shape" fill="#E72369"></path>
                        <g transform="translate(9.166667, 11.916667)" id="Shape">
                            <path d="M25.2083333,2.75 C24.2916667,3.11666667 23.375,3.39166667 22.3666667,3.575 C23.375,2.93333333 24.2,2.01666667 24.5666667,0.825 C23.65,1.375 22.55,1.83333333 21.45,2.01666667 C20.5333333,1.00833333 19.25,0.458333333 17.7833333,0.458333333 C15.0333333,0.458333333 12.8333333,2.65833333 12.8333333,5.40833333 C12.8333333,5.775 12.8333333,6.14166667 12.925,6.50833333 C8.8,6.325 5.13333333,4.30833333 2.65833333,1.28333333 C2.2,2.01666667 2.01666667,2.84166667 2.01666667,3.75833333 C2.01666667,5.5 2.93333333,6.96666667 4.21666667,7.88333333 C3.39166667,7.88333333 2.65833333,7.60833333 1.925,7.24166667 C1.925,7.24166667 1.925,7.24166667 1.925,7.33333333 C1.925,9.71666667 3.66666667,11.7333333 5.95833333,12.1916667 C5.5,12.2833333 5.13333333,12.375 4.675,12.375 C4.30833333,12.375 4.03333333,12.375 3.75833333,12.2833333 C4.4,14.3 6.23333333,15.675 8.43333333,15.7666667 C6.69166667,17.1416667 4.58333333,17.875 2.29166667,17.875 C1.925,17.875 1.46666667,17.875 1.1,17.7833333 C3.3,19.1583333 5.95833333,19.9833333 8.70833333,19.9833333 C17.875,19.9833333 22.825,12.375 22.825,5.86666667 L22.825,5.225 C23.65,4.675 24.475,3.75833333 25.2083333,2.75 L25.2083333,2.75 Z" fill="#676767"></path>
                            <path d="M24.75,2.38333333 C23.8333333,2.75 22.9166667,3.025 21.9083333,3.20833333 C22.9166667,2.56666667 23.7416667,1.65 24.1083333,0.458333333 C23.1916667,1.00833333 22.0916667,1.46666667 20.9916667,1.65 C20.075,0.641666667 18.7916667,0.0916666667 17.325,0.0916666667 C14.575,0.0916666667 12.375,2.29166667 12.375,5.04166667 C12.375,5.40833333 12.375,5.775 12.4666667,6.14166667 C8.25,5.86666667 4.58333333,3.94166667 2.2,0.916666667 C1.74166667,1.65 1.55833333,2.475 1.55833333,3.39166667 C1.55833333,5.13333333 2.475,6.6 3.75833333,7.51666667 C2.93333333,7.51666667 2.2,7.24166667 1.46666667,6.875 C1.46666667,6.875 1.46666667,6.875 1.46666667,6.96666667 C1.46666667,9.35 3.20833333,11.3666667 5.5,11.825 C5.04166667,11.9166667 4.675,12.0083333 4.21666667,12.0083333 C3.85,12.0083333 3.575,12.0083333 3.3,11.9166667 C3.94166667,13.9333333 5.775,15.3083333 7.975,15.4 C6.23333333,16.775 4.125,17.5083333 1.83333333,17.5083333 C1.46666667,17.5083333 1.00833333,17.5083333 0.641666667,17.4166667 C2.84166667,18.7916667 5.5,19.6166667 8.25,19.6166667 C17.4166667,19.6166667 22.3666667,12.0083333 22.3666667,5.5 L22.3666667,4.85833333 C23.1916667,4.21666667 24.1083333,3.3 24.75,2.38333333 L24.75,2.38333333 Z" fill="#FFFFFF"></path>
                        </g>
                    </g>
                </g>
            </g>
            <g id="youtube-01" transform="translate(0.000000, 308.000000)">
                <g id="Capa_1">
                    <g id="Group">
                        <path d="M42.9,43.8166667 L1.1,43.8166667 C0.55,43.8166667 0.183333333,43.45 0.183333333,42.9 L0.183333333,1.1 C0.183333333,0.55 0.55,0.183333333 1.1,0.183333333 L42.9,0.183333333 C43.45,0.183333333 43.8166667,0.55 43.8166667,1.1 L43.8166667,42.9 C43.8166667,43.45 43.45,43.8166667 42.9,43.8166667 L42.9,43.8166667 Z" id="Shape" fill="#E72369"></path>
                        <g transform="translate(7.333333, 11.916667)" id="Shape">
                            <path d="M28.325,5.225 C28.325,3.11666667 26.5833333,1.375 24.3833333,1.375 C21.45,1.28333333 18.425,1.19166667 15.4,1.19166667 L14.9416667,1.19166667 L14.4833333,1.19166667 C11.4583333,1.19166667 8.43333333,1.28333333 5.5,1.375 C3.3,1.375 1.55833333,3.11666667 1.55833333,5.225 C1.46666667,6.875 1.375,8.61666667 1.375,10.2666667 C1.375,12.0083333 1.46666667,13.6583333 1.55833333,15.4 C1.55833333,17.5083333 3.3,19.25 5.5,19.25 C8.61666667,19.3416667 11.7333333,19.4333333 14.9416667,19.4333333 C18.15,19.4333333 21.3583333,19.3416667 24.3833333,19.25 C26.5833333,19.25 28.325,17.5083333 28.325,15.4 C28.4166667,13.6583333 28.5083333,12.0083333 28.5083333,10.2666667 C28.5083333,8.61666667 28.4166667,6.96666667 28.325,5.225 L28.325,5.225 Z M19.0666667,11.1833333 L11.55,15.4916667 C10.725,15.95 10.0833333,15.5833333 10.0833333,14.6666667 L10.0833333,6.05 C10.0833333,5.13333333 10.725,4.76666667 11.55,5.225 L19.0666667,9.53333333 C19.8916667,9.9 19.8916667,10.725 19.0666667,11.1833333 L19.0666667,11.1833333 Z" fill="#676767"></path>
                            <path d="M27.8666667,4.76666667 C27.8666667,2.65833333 26.125,0.916666667 23.925,0.916666667 C20.9916667,0.825 17.9666667,0.733333333 14.9416667,0.733333333 L14.4833333,0.733333333 L14.025,0.733333333 C11,0.733333333 7.975,0.825 5.04166667,0.916666667 C2.84166667,0.916666667 1.1,2.65833333 1.1,4.76666667 C0.916666667,6.41666667 0.825,8.15833333 0.825,9.80833333 C0.825,11.55 0.916666667,13.2 1.00833333,14.9416667 C1.00833333,17.05 2.75,18.7916667 4.95,18.7916667 C8.06666667,18.8833333 11.1833333,18.975 14.3916667,18.975 C17.6,18.975 20.8083333,18.8833333 23.8333333,18.7916667 C26.0333333,18.7916667 27.775,17.05 27.775,14.9416667 C27.8666667,13.2 27.9583333,11.55 27.9583333,9.80833333 C28.05,8.15833333 27.9583333,6.41666667 27.8666667,4.76666667 L27.8666667,4.76666667 Z M18.6083333,10.6333333 L11.0916667,14.9416667 C10.2666667,15.4 9.625,15.0333333 9.625,14.1166667 L9.625,5.5 C9.625,4.58333333 10.2666667,4.21666667 11.0916667,4.675 L18.6083333,8.98333333 C19.3416667,9.44166667 19.3416667,10.175 18.6083333,10.6333333 L18.6083333,10.6333333 Z" fill="#FFFFFF"></path>
                        </g>
                    </g>
                </g>
            </g>
        </g>
    </g>
</svg>