<?xml version="1.0" encoding="UTF-8" standalone="no"?>
<svg width="32px" height="256px" viewBox="0 0 32 256" version="1.1" xmlns="http://www.w3.org/2000/svg" xmlns:xlink="http://www.w3.org/1999/xlink">
    <!-- Generator: Sketch 3.8.3 (29802) - http://www.bohemiancoding.com/sketch -->
    <title>Group-2</title>
    <desc>Created with Sketch.</desc>
    <defs></defs>
    <g id="Page-1" stroke="none" stroke-width="1" fill="none" fill-rule="evenodd">
        <g id="social-sprite">
            <g id="Group-2">
                <g id="Page-1">
                    <g id="Group-2">
                        <g id="blog-01">
                            <g id="Capa_1">
                                <g id="Group">
                                    <path d="M31.2,31.8666667 L0.8,31.8666667 C0.4,31.8666667 0.133333333,31.6 0.133333333,31.2 L0.133333333,0.8 C0.133333333,0.4 0.4,0.133333333 0.8,0.133333333 L31.2,0.133333333 C31.6,0.133333333 31.8666667,0.4 31.8666667,0.8 L31.8666667,31.2 C31.8666667,31.6 31.6,31.8666667 31.2,31.8666667 L31.2,31.8666667 L31.2,31.8666667 Z" id="Shape" fill="#E72369"></path>
                                    <g transform="translate(8.000000, 8.000000)">
                                        <path d="M4.06666667,12.2666667 C4.4,12.6 4.66666667,13.1333333 4.66666667,13.6666667 C4.66666667,14.2 4.46666667,14.7333333 4.06666667,15.0666667 L4.06666667,15.0666667 C3.73333333,15.4 3.2,15.6666667 2.66666667,15.6666667 C2.13333333,15.6666667 1.6,15.4666667 1.26666667,15.0666667 C0.933333331,14.7333333 0.666666667,14.2 0.666666667,13.6666667 C0.666666667,13.1333333 0.866666669,12.6 1.26666667,12.2666667 L1.26666667,12.2666667 C1.6,11.9333333 2.13333333,11.6666667 2.66666667,11.6666667 C3.2,11.6666667 3.73333333,11.9333333 4.06666667,12.2666667 L4.06666667,12.2666667 L4.06666667,12.2666667 Z M0.666666667,5.8 L0.666666667,8.66666669 C2.53333333,8.66666669 4.33333333,9.4 5.6,10.7333333 C6.93333333,12.0666667 7.66666669,13.8 7.66666669,15.6666667 L7.66666669,15.6666667 L7.66666669,15.6666667 L10.5333333,15.6666667 C10.5333333,12.9333333 9.4,10.4666667 7.6,8.66666669 C5.86666667,6.86666667 3.4,5.8 0.666666667,5.8 L0.666666667,5.8 L0.666666667,5.8 Z M0.666666667,0.666666667 L0.666666667,3.53333333 C7.33333331,3.53333333 12.8,9 12.8,15.6666667 L15.6666667,15.6666667 C15.6666667,11.5333333 14,7.8 11.2666667,5.06666667 C8.53333331,2.33333333 4.8,0.666666667 0.666666667,0.666666667 L0.666666667,0.666666667 L0.666666667,0.666666667 Z" id="RSS_1_" fill="#676767"></path>
                                        <path d="M3.73333333,11.9333333 C4.06666667,12.2666667 4.33333333,12.8 4.33333333,13.3333333 C4.33333333,13.8666667 4.13333333,14.4 3.73333333,14.7333333 L3.73333333,14.7333333 C3.33333333,15.0666667 2.86666667,15.3333333 2.33333333,15.3333333 C1.8,15.3333333 1.26666667,15.1333333 0.933333331,14.7333333 C0.6,14.4 0.333333333,13.8666667 0.333333333,13.3333333 C0.333333333,12.8 0.533333333,12.2666667 0.933333331,11.9333333 L0.933333331,11.9333333 C1.26666667,11.6 1.8,11.3333333 2.33333333,11.3333333 C2.86666667,11.3333333 3.33333333,11.5333333 3.73333333,11.9333333 L3.73333333,11.9333333 L3.73333333,11.9333333 Z M0.333333333,5.4 L0.333333333,8.26666669 C2.2,8.26666669 4,9 5.26666667,10.3333333 C6.6,11.6666667 7.33333331,13.4 7.33333331,15.2666667 L7.33333331,15.2666667 L7.33333331,15.2666667 L10.2,15.2666667 C10.2,12.5333333 9.06666669,10.0666667 7.26666667,8.26666669 C5.53333333,6.53333333 3.06666667,5.4 0.333333333,5.4 L0.333333333,5.4 L0.333333333,5.4 Z M0.333333333,0.333333333 L0.333333333,3.2 C7,3.2 12.4666667,8.66666669 12.4666667,15.3333333 L15.3333333,15.3333333 C15.3333333,11.2 13.6666667,7.46666669 10.9333333,4.73333333 C8.2,2 4.46666667,0.333333333 0.333333333,0.333333333 L0.333333333,0.333333333 L0.333333333,0.333333333 Z" id="RSS_4_" fill="#FFFFFF"></path>
                                    </g>
                                </g>
                            </g>
                        </g>
                        <g id="facebook-01" transform="translate(0.000000, 32.000000)">
                            <g id="Capa_1">
                                <g id="Group">
                                    <path d="M31.2,31.8666667 L0.8,31.8666667 C0.4,31.8666667 0.133333333,31.6 0.133333333,31.2 L0.133333333,0.8 C0.133333333,0.4 0.4,0.133333333 0.8,0.133333333 L31.2,0.133333333 C31.6,0.133333333 31.8666667,0.4 31.8666667,0.8 L31.8666667,31.2 C31.8666667,31.6 31.6,31.8666667 31.2,31.8666667 L31.2,31.8666667 L31.2,31.8666667 Z" id="Shape" fill="#E72369"></path>
                                    <g transform="translate(11.333333, 7.333333)">
                                        <path d="M2.6,3.93333333 L2.6,6.26666667 L0.933333331,6.26666667 L0.933333331,9.13333331 L2.6,9.13333331 L2.6,17 L6.06666667,17 L6.06666667,9.13333331 L8.4,9.13333331 C8.4,9.13333331 8.6,7.73333331 8.73333331,6.26666667 L6.06666667,6.26666667 L6.06666667,4.33333333 C6.06666667,4.06666667 6.46666667,3.66666667 6.8,3.66666667 L8.66666669,3.66666667 L8.66666669,0.666666667 L6.06666667,0.666666667 C2.53333333,0.666666667 2.6,3.53333333 2.6,3.93333333 L2.6,3.93333333 L2.6,3.93333333 Z" id="Facebook_1_" fill="#676767"></path>
                                        <path d="M2.26666667,3.6 L2.26666667,5.93333333 L0.6,5.93333333 L0.6,8.8 L2.26666667,8.8 L2.26666667,16.6666667 L5.73333333,16.6666667 L5.73333333,8.8 L8.06666669,8.8 C8.06666669,8.8 8.26666669,7.4 8.4,5.93333333 L5.73333333,5.93333333 L5.73333333,4 C5.73333333,3.73333333 6.13333333,3.33333333 6.46666667,3.33333333 L8.33333331,3.33333333 L8.33333331,0.333333333 L5.73333333,0.333333333 C2.2,0.333333333 2.26666667,3.2 2.26666667,3.6 L2.26666667,3.6 L2.26666667,3.6 Z" id="Facebook_3_" fill="#FFFFFF"></path>
                                    </g>
                                </g>
                            </g>
                        </g>
                        <g id="google-01" transform="translate(0.000000, 64.000000)">
                            <g id="Capa_1">
                                <g id="Group">
                                    <path d="M31.2,31.8666667 L0.8,31.8666667 C0.4,31.8666667 0.133333333,31.6 0.133333333,31.2 L0.133333333,0.8 C0.133333333,0.4 0.4,0.133333333 0.8,0.133333333 L31.2,0.133333333 C31.6,0.133333333 31.8666667,0.4 31.8666667,0.8 L31.8666667,31.2 C31.8666667,31.6 31.6,31.8666667 31.2,31.8666667 L31.2,31.8666667 L31.2,31.8666667 Z" id="Shape" fill="#E72369"></path>
                                    <g id="Shape" transform="translate(7.333333, 7.333333)">
                                        <g id="Group" transform="translate(0.000000, 0.666667)" fill="#676767">
                                            <polygon id="Shape" points="14.7333333 2.66666667 14.7333333 -1.29189588e-15 13.6 -1.29189588e-15 13.6 2.66666667 10.9333333 2.66666667 10.9333333 3.8 13.6 3.8 13.6 6.53333333 14.7333333 6.53333333 14.7333333 3.8 17.4 3.8 17.4 2.66666667"></polygon>
                                            <path d="M9.93333331,10.5333333 C9.8,10.3333333 9.6,10.0666667 9.33333331,9.86666669 C9.13333331,9.66666669 8.86666669,9.46666669 8.66666669,9.26666669 L7.93333331,8.66666669 C7.8,8.53333331 7.66666669,8.46666669 7.6,8.33333331 C7.4,8.2 7.33333331,8 7.33333331,7.73333331 C7.33333331,7.46666669 7.4,7.26666667 7.53333331,7.13333333 C7.66666669,7 7.8,6.8 7.93333331,6.66666667 C8.13333331,6.46666667 8.4,6.33333333 8.6,6.13333333 C8.8,5.93333333 9,5.73333333 9.2,5.46666667 C9.4,5.2 9.53333331,4.93333333 9.6,4.66666667 C9.66666669,4.4 9.73333331,4 9.73333331,3.6 C9.73333331,3.2 9.66666669,2.86666667 9.53333331,2.53333333 C9.4,2.2 9.26666669,1.93333333 9.13333331,1.73333333 C9,1.46666667 8.8,1.26666667 8.66666669,1.13333333 C8.46666669,1 8.33333331,0.866666669 8.2,0.733333331 L9.53333331,0.733333331 L10.8666667,1.29189588e-15 L6.46666667,1.29189588e-15 C5.86666667,1.29189588e-15 5.26666667,0.0666666667 4.6,0.2 C3.93333333,0.333333333 3.26666667,0.666666667 2.66666667,1.13333333 C2.2,1.53333333 1.86666667,2 1.66666667,2.46666667 C1.46666667,3 1.33333333,3.46666667 1.33333333,4 C1.33333333,4.4 1.4,4.8 1.6,5.2 C1.73333333,5.6 2,5.93333333 2.26666667,6.26666667 C2.53333333,6.6 2.93333333,6.8 3.4,7 C3.86666667,7.2 4.33333333,7.26666667 4.93333333,7.26666667 L5.26666667,7.26666667 L5.6,7.26666667 C5.53333333,7.4 5.46666667,7.53333331 5.46666667,7.66666669 C5.33333333,7.86666669 5.33333333,8 5.33333333,8.2 C5.33333333,8.53333331 5.4,8.8 5.53333333,9 C5.66666667,9.2 5.8,9.4 6,9.6 C5.73333333,9.6 5.46666667,9.66666669 5.13333333,9.66666669 C4.8,9.66666669 4.46666667,9.73333331 4.06666667,9.8 C3.66666667,9.86666669 3.33333333,10 2.93333333,10.0666667 C2.53333333,10.2 2.2,10.3333333 1.86666667,10.5333333 C1.26666667,10.9333333 0.8,11.3333333 0.6,11.8 C0.4,12.2666667 0.266666667,12.7333333 0.266666667,13.1333333 C0.266666667,13.5333333 0.333333333,13.9333333 0.533333333,14.2666667 C0.733333331,14.6 1,14.9333333 1.4,15.2666667 C1.8,15.5333333 2.26666667,15.8 2.86666667,15.9333333 C3.46666667,16.1333333 4.13333333,16.2 4.86666667,16.2 C5.8,16.2 6.6,16.0666667 7.26666667,15.8666667 C8,15.6 8.53333331,15.3333333 9,14.9333333 C9.46666669,14.5333333 9.8,14.1333333 10.0666667,13.6666667 C10.3333333,13.2 10.4,12.6666667 10.4,12.2 C10.4,11.8 10.3333333,11.5333333 10.2666667,11.2 C10.2,11 10.0666667,10.7333333 9.93333331,10.5333333 L9.93333331,10.5333333 L9.93333331,10.5333333 Z M5.86666667,6.8 C5.4,6.8 5,6.66666667 4.66666667,6.4 C4.33333333,6.13333333 4.06666667,5.8 3.8,5.4 C3.6,5 3.4,4.6 3.33333333,4.13333333 C3.2,3.66666667 3.2,3.26666667 3.2,2.93333333 C3.2,2.66666667 3.2,2.4 3.26666667,2.06666667 C3.33333333,1.8 3.46666667,1.53333333 3.66666667,1.33333333 C3.86666667,1.13333333 4.06666667,0.933333331 4.33333333,0.8 C4.6,0.666666667 4.86666667,0.6 5.13333333,0.6 C5.6,0.6 5.93333333,0.733333331 6.26666667,1 C6.6,1.26666667 6.86666667,1.6 7.13333333,2 C7.33333331,2.4 7.53333331,2.8 7.66666669,3.26666667 C7.8,3.73333333 7.86666669,4.13333333 7.86666669,4.53333333 C7.86666669,4.73333333 7.86666669,5 7.8,5.26666667 C7.73333331,5.6 7.6,5.86666667 7.33333331,6.06666667 C7.13333333,6.26666667 6.93333333,6.4 6.66666667,6.46666667 C6.4,6.73333333 6.13333333,6.8 5.86666667,6.8 L5.86666667,6.8 L5.86666667,6.8 Z M8.2,14.7333333 C7.66666669,15.1333333 6.86666667,15.4 5.86666667,15.4 C4.73333333,15.4 3.8,15.1333333 3.13333333,14.6666667 C2.46666667,14.2 2.13333333,13.5333333 2.13333333,12.8 C2.13333333,12.4 2.2,12.0666667 2.33333333,11.8666667 C2.46666667,11.6 2.66666667,11.4 2.86666667,11.2 C3.06666667,11 3.26666667,10.8666667 3.46666667,10.8 C3.66666667,10.7333333 3.86666667,10.6666667 3.93333333,10.6 C4.13333333,10.5333333 4.4,10.4666667 4.66666667,10.4 C4.93333333,10.3333333 5.13333333,10.3333333 5.33333333,10.2666667 C5.53333333,10.2666667 5.73333333,10.2 5.86666667,10.2 L6.13333333,10.2 L6.4,10.2 L6.6,10.2 C7,10.4666667 7.33333331,10.7333333 7.66666669,11 C7.93333331,11.2 8.2,11.4666667 8.4,11.6666667 C8.6,11.8666667 8.73333331,12.0666667 8.8,12.3333333 C8.86666669,12.5333333 8.93333331,12.8 8.93333331,13.0666667 C9.06666669,13.7333333 8.8,14.3333333 8.2,14.7333333 L8.2,14.7333333 L8.2,14.7333333 Z" id="Shape"></path>
                                        </g>
                                        <g id="Group" fill="#FFFFFF">
                                            <polygon id="Shape" points="14.4 3.06666667 14.4 0.4 13.2666667 0.4 13.2666667 3.06666667 10.6 3.06666667 10.6 4.2 13.2666667 4.2 13.2666667 6.86666667 14.4 6.86666667 14.4 4.2 17.0666667 4.2 17.0666667 3.06666667"></polygon>
                                            <path d="M9.6,10.8666667 C9.46666669,10.6666667 9.26666669,10.4 9,10.2 C8.8,10 8.53333331,9.8 8.33333331,9.6 L7.53333331,9 C7.4,8.86666669 7.26666667,8.8 7.2,8.66666669 C7.06666667,8.53333331 7,8.33333331 7,8.06666669 C7,7.8 7.06666667,7.6 7.2,7.46666669 C7.33333331,7.33333331 7.46666669,7.13333333 7.6,7 C7.8,6.8 8.06666669,6.66666667 8.26666669,6.46666667 C8.46666669,6.26666667 8.66666669,6.06666667 8.86666669,5.8 C9.06666669,5.53333333 9.2,5.26666667 9.26666669,5 C9.33333331,4.73333333 9.4,4.33333333 9.4,3.93333333 C9.4,3.53333333 9.33333331,3.2 9.2,2.86666667 C9.06666669,2.53333333 8.93333331,2.26666667 8.8,2.06666667 C8.66666669,1.8 8.46666669,1.6 8.33333331,1.46666667 C8.13333331,1.33333333 8,1.2 7.86666669,1.06666667 L9.2,1.06666667 L10.5333333,0.333333333 L6.13333333,0.333333333 C5.53333333,0.333333333 4.93333333,0.4 4.26666667,0.533333333 C3.6,0.666666667 2.93333333,1 2.33333333,1.46666667 C1.86666667,1.86666667 1.53333333,2.33333333 1.33333333,2.8 C1.13333333,3.33333333 1,3.8 1,4.33333333 C1,4.73333333 1.06666667,5.13333333 1.26666667,5.53333333 C1.4,5.93333333 1.66666667,6.26666667 1.93333333,6.6 C2.2,6.93333333 2.6,7.13333333 3.06666667,7.33333331 C3.53333333,7.53333331 4,7.6 4.6,7.6 L4.93333333,7.6 L5.26666667,7.6 C5.2,7.73333331 5.13333333,7.86666669 5.13333333,8 C5.06666667,8.13333331 5.06666667,8.26666669 5.06666667,8.46666669 C5.06666667,8.8 5.13333333,9.06666669 5.26666667,9.26666669 C5.4,9.46666669 5.53333333,9.66666669 5.73333333,9.86666669 C5.46666667,9.86666669 5.2,9.93333331 4.86666667,9.93333331 C4.53333333,9.93333331 4.2,10 3.8,10.0666667 C3.4,10.1333333 3.06666667,10.2666667 2.66666667,10.3333333 C2.26666667,10.4666667 1.93333333,10.6 1.6,10.8 C1,11.2 0.533333333,11.6 0.333333333,12.0666667 C0.133333333,12.5333333 -1.29189588e-15,13 -1.29189588e-15,13.4 C-1.29189588e-15,13.8 0.0666666667,14.2 0.266666667,14.5333333 C0.466666667,14.8666667 0.733333331,15.2 1.13333333,15.5333333 C1.53333333,15.8 2,16.0666667 2.6,16.2 C3.2,16.4 3.86666667,16.4666667 4.6,16.4666667 C5.53333333,16.4666667 6.33333333,16.3333333 7,16.1333333 C7.73333331,15.8666667 8.26666669,15.6 8.73333331,15.2 C9.2,14.8 9.53333331,14.4 9.8,13.9333333 C10.0666667,13.4666667 10.1333333,12.9333333 10.1333333,12.4666667 C10.1333333,12.0666667 10.0666667,11.8 10,11.4666667 C9.86666669,11.3333333 9.73333331,11.0666667 9.6,10.8666667 L9.6,10.8666667 L9.6,10.8666667 Z M5.53333333,7.13333333 C5.06666667,7.13333333 4.66666667,7 4.33333333,6.73333333 C4,6.46666667 3.73333333,6.13333333 3.46666667,5.73333333 C3.26666667,5.33333333 3.06666667,4.93333333 3,4.46666667 C2.86666667,4 2.86666667,3.6 2.86666667,3.26666667 C2.86666667,3 2.86666667,2.73333333 2.93333333,2.4 C3,2.13333333 3.13333333,1.86666667 3.33333333,1.66666667 C3.53333333,1.46666667 3.73333333,1.26666667 4,1.13333333 C4.26666667,1 4.53333333,0.933333331 4.8,0.933333331 C5.26666667,0.933333331 5.6,1.06666667 5.93333333,1.33333333 C6.26666667,1.6 6.53333333,1.93333333 6.8,2.33333333 C7,2.73333333 7.2,3.13333333 7.33333331,3.6 C7.46666669,4.06666667 7.53333331,4.46666667 7.53333331,4.86666667 C7.53333331,5.06666667 7.53333331,5.33333333 7.46666669,5.6 C7.4,5.93333333 7.26666667,6.2 7,6.4 C6.8,6.6 6.6,6.73333333 6.33333333,6.8 C6.06666667,7.13333333 5.8,7.13333333 5.53333333,7.13333333 L5.53333333,7.13333333 L5.53333333,7.13333333 Z M7.93333331,15.0666667 C7.4,15.4666667 6.6,15.7333333 5.6,15.7333333 C4.46666667,15.7333333 3.53333333,15.4666667 2.86666667,15 C2.2,14.5333333 1.86666667,13.8666667 1.86666667,13.1333333 C1.86666667,12.7333333 1.93333333,12.4 2.06666667,12.2 C2.2,11.9333333 2.4,11.7333333 2.6,11.5333333 C2.8,11.3333333 3,11.2 3.2,11.1333333 C3.4,11.0666667 3.6,11 3.66666667,10.9333333 C3.86666667,10.8666667 4.13333333,10.8 4.4,10.7333333 C4.66666667,10.6666667 4.86666667,10.6666667 5.06666667,10.6 C5.26666667,10.6 5.46666667,10.5333333 5.6,10.5333333 L5.86666667,10.5333333 L6.13333333,10.5333333 L6.33333333,10.5333333 C6.73333333,10.8 7.06666667,11.0666667 7.4,11.3333333 C7.66666669,11.5333333 7.93333331,11.8 8.13333331,12 C8.33333331,12.2 8.46666669,12.4 8.53333331,12.6666667 C8.6,12.8666667 8.66666669,13.1333333 8.66666669,13.4 C8.73333331,14.1333333 8.46666669,14.6666667 7.93333331,15.0666667 L7.93333331,15.0666667 L7.93333331,15.0666667 Z" id="Shape"></path>
                                        </g>
                                    </g>
                                </g>
                            </g>
                        </g>
                        <g id="instagram-01" transform="translate(0.000000, 96.000000)">
                            <g id="Capa_1">
                                <g id="Group">
                                    <path d="M31.2,31.8666667 L0.8,31.8666667 C0.4,31.8666667 0.133333333,31.6 0.133333333,31.2 L0.133333333,0.8 C0.133333333,0.4 0.4,0.133333333 0.8,0.133333333 L31.2,0.133333333 C31.6,0.133333333 31.8666667,0.4 31.8666667,0.8 L31.8666667,31.2 C31.8666667,31.6 31.6,31.8666667 31.2,31.8666667 L31.2,31.8666667 L31.2,31.8666667 Z" id="Shape" fill="#E72369"></path>
                                    <g id="Shape" transform="translate(6.666667, 6.666667)">
                                        <path d="M15.1333333,0.933333331 L3.86666667,0.933333331 C2.13333333,0.933333331 0.666666667,2.33333333 0.666666667,4.06666667 L0.666666667,15 C0.666666667,16.7333333 2.13333333,18.1333333 3.86666667,18.1333333 L15.1333333,18.1333333 C16.8666667,18.1333333 18.3333333,16.7333333 18.3333333,15 L18.3333333,4.06666667 C18.3333333,2.33333333 16.8666667,0.933333331 15.1333333,0.933333331 L15.1333333,0.933333331 L15.1333333,0.933333331 Z M13.0666667,3.33333333 C13.0666667,2.93333333 13.4,2.66666667 13.8,2.66666667 L15.9333333,2.66666667 C16.2666667,2.66666667 16.6,2.86666667 16.6666667,3.26666667 L16.6666667,3.4 L16.6666667,5.4 C16.6666667,5.73333333 16.4,6 16.0666667,6.06666667 L15.9333333,6.06666667 L14.8666667,6.06666667 L13.8,6.06666667 C13.4666667,6.06666667 13.1333333,5.86666667 13.0666667,5.46666667 L13.0666667,5.4 L13.0666667,3.33333333 L13.0666667,3.33333333 L13.0666667,3.33333333 Z M9.53333331,6 C11.4666667,6 13.0666667,7.53333331 13.0666667,9.4 C13.0666667,11.2666667 11.4666667,12.7333333 9.53333331,12.7333333 C7.6,12.7333333 6,11.2 6,9.4 C5.93333333,7.53333331 7.53333331,6 9.53333331,6 L9.53333331,6 L9.53333331,6 Z M16.6,8.13333331 L16.6,14.1333333 L16.6,15.4666667 C16.6,15.8 16.4,16.0666667 16.0666667,16.1333333 L15.8666667,16.1333333 L9.73333331,16.1333333 L3.2,16.1333333 C3.13333333,16.1333333 3,16.1333333 2.93333333,16.0666667 C2.66666667,16 2.46666667,15.7333333 2.46666667,15.4666667 L2.46666667,15.3333333 L2.46666667,8.06666669 L2.46666667,8 L4.06666667,8 C3.73333333,9.4 3.86666667,10.7333333 4.6,12 C5.13333333,12.8666667 5.86666667,13.6 6.8,14.0666667 C7.73333331,14.5333333 8.73333331,14.8 9.8,14.7333333 C11.6,14.6666667 13,13.8666667 14.0666667,12.5333333 C15.1333333,11.1333333 15.4,9.66666669 15,8 L16.6,8 L16.6,8.13333331 L16.6,8.13333331 L16.6,8.13333331 Z" fill="#676767"></path>
                                        <path d="M14.8,0.6 L3.53333333,0.6 C1.8,0.6 0.333333333,2 0.333333333,3.73333333 L0.333333333,14.6666667 C0.333333333,16.4 1.8,17.8 3.53333333,17.8 L14.8,17.8 C16.5333333,17.8 18,16.4 18,14.6666667 L18,3.66666667 C18,2 16.5333333,0.6 14.8,0.6 L14.8,0.6 L14.8,0.6 Z M12.7333333,3 C12.7333333,2.6 13.0666667,2.33333333 13.4666667,2.33333333 L15.6,2.33333333 C15.9333333,2.33333333 16.2666667,2.53333333 16.3333333,2.93333333 L16.3333333,3.06666667 L16.3333333,5.06666667 C16.3333333,5.4 16.0666667,5.66666667 15.7333333,5.73333333 L15.6,5.73333333 L14.5333333,5.73333333 L13.4666667,5.73333333 C13.1333333,5.73333333 12.8,5.53333333 12.7333333,5.13333333 L12.7333333,5.06666667 L12.7333333,3 L12.7333333,3 L12.7333333,3 Z M9.13333331,5.66666667 C11.0666667,5.66666667 12.6666667,7.2 12.6666667,9.06666669 C12.6666667,10.9333333 11.0666667,12.4 9.13333331,12.4 C7.2,12.4 5.6,10.8666667 5.6,9.06666669 C5.6,7.2 7.2,5.66666667 9.13333331,5.66666667 L9.13333331,5.66666667 L9.13333331,5.66666667 Z M16.2666667,7.8 L16.2666667,13.8 L16.2666667,15.1333333 C16.2666667,15.4666667 16.0666667,15.7333333 15.7333333,15.8 L15.5333333,15.8 L9.4,15.8 L2.86666667,15.8 C2.8,15.8 2.66666667,15.8 2.6,15.7333333 C2.33333333,15.6666667 2.13333333,15.4 2.13333333,15.1333333 L2.13333333,15 L2.13333333,7.73333331 L2.13333333,7.66666669 L3.73333333,7.66666669 C3.4,9.06666669 3.53333333,10.4 4.26666667,11.6666667 C4.8,12.5333333 5.53333333,13.2666667 6.46666667,13.7333333 C7.4,14.2 8.4,14.4666667 9.46666669,14.4 C11.2666667,14.3333333 12.6666667,13.5333333 13.7333333,12.2 C14.8,10.8 15.0666667,9.33333331 14.6666667,7.66666669 L16.2666667,7.66666669 L16.2666667,7.8 L16.2666667,7.8 L16.2666667,7.8 Z" fill="#FFFFFF"></path>
                                    </g>
                                </g>
                            </g>
                        </g>
                        <g id="linkedin-01" transform="translate(0.000000, 128.000000)">
                            <g id="Capa_1">
                                <g id="Group">
                                    <path d="M31.2,31.8666667 L0.8,31.8666667 C0.466666667,31.8666667 0.133333333,31.6 0.133333333,31.2 L0.133333333,0.8 C0.133333333,0.466666667 0.4,0.133333333 0.8,0.133333333 L31.2,0.133333333 C31.5333333,0.133333333 31.8666667,0.4 31.8666667,0.8 L31.8666667,31.2 C31.8666667,31.6 31.6,31.8666667 31.2,31.8666667 L31.2,31.8666667 L31.2,31.8666667 Z" id="Shape" fill="#E72369"></path>
                                    <g id="Shape" transform="translate(8.000000, 8.666667)">
                                        <path d="M4.06666667,14.2666667 L1.2,14.2666667 L1.2,5.06666667 L4.06666667,5.06666667 L4.06666667,14.2666667 L4.06666667,14.2666667 L4.06666667,14.2666667 Z M2.53333333,3.93333333 L2.53333333,3.93333333 C1.46666667,3.93333333 0.8,3.2 0.8,2.33333333 C0.8,1.4 1.46666667,0.733333331 2.53333333,0.733333331 C3.6,0.733333331 4.26666667,1.4 4.26666667,2.33333333 C4.26666667,3.2 3.6,3.93333333 2.53333333,3.93333333 L2.53333333,3.93333333 L2.53333333,3.93333333 Z M15.5333333,14.2666667 L12.2666667,14.2666667 L12.2666667,9.53333331 C12.2666667,8.26666669 11.7333333,7.46666669 10.6666667,7.46666669 C9.8,7.46666669 9.33333331,8.06666669 9.13333331,8.6 C9.06666669,8.8 9.06666669,9.06666669 9.06666669,9.33333331 L9.06666669,14.3333333 L5.86666667,14.3333333 C5.86666667,14.3333333 5.93333333,5.93333333 5.86666667,5.13333333 L9.06666669,5.13333333 L9.06666669,6.6 C9.26666669,6 10.2666667,5.06666667 11.9333333,5.06666667 C14,5.06666667 15.6,6.4 15.6,9.2 L15.6,14.2666667 L15.5333333,14.2666667 L15.5333333,14.2666667 Z" fill="#676767"></path>
                                        <path d="M3.73333333,13.9333333 L0.866666669,13.9333333 L0.866666669,4.73333333 L3.73333333,4.73333333 L3.73333333,13.9333333 L3.73333333,13.9333333 L3.73333333,13.9333333 Z M2.2,3.6 L2.2,3.6 C1.13333333,3.6 0.466666667,2.86666667 0.466666667,2 C0.466666667,1.06666667 1.13333333,0.4 2.2,0.4 C3.26666667,0.4 3.93333333,1.06666667 3.93333333,2 C3.93333333,2.86666667 3.26666667,3.6 2.2,3.6 L2.2,3.6 L2.2,3.6 Z M15.2,13.9333333 L11.9333333,13.9333333 L11.9333333,9.2 C11.9333333,7.93333331 11.4,7.13333333 10.3333333,7.13333333 C9.46666669,7.13333333 9,7.73333331 8.8,8.26666669 C8.66666669,8.4 8.66666669,8.66666669 8.66666669,8.93333331 L8.66666669,13.9333333 L5.46666667,13.9333333 C5.46666667,13.9333333 5.53333333,5.53333333 5.46666667,4.73333333 L8.66666669,4.73333333 L8.66666669,6.2 C8.86666669,5.6 9.86666669,4.66666667 11.5333333,4.66666667 C13.6,4.66666667 15.2,6 15.2,8.8 L15.2,13.9333333 L15.2,13.9333333 L15.2,13.9333333 Z" fill="#FFFFFF"></path>
                                    </g>
                                </g>
                            </g>
                        </g>
                        <g id="pinterest-01" transform="translate(0.000000, 160.000000)">
                            <g id="Capa_1">
                                <g id="Group">
                                    <path d="M31.2,31.8666667 L0.8,31.8666667 C0.4,31.8666667 0.133333333,31.6 0.133333333,31.2 L0.133333333,0.8 C0.133333333,0.4 0.4,0.133333333 0.8,0.133333333 L31.2,0.133333333 C31.6,0.133333333 31.8666667,0.4 31.8666667,0.8 L31.8666667,31.2 C31.8666667,31.6 31.6,31.8666667 31.2,31.8666667 L31.2,31.8666667 L31.2,31.8666667 Z" id="Shape" fill="#E72369"></path>
                                    <g id="Shape" transform="translate(8.666667, 6.666667)">
                                        <path d="M7.93333331,0.533333333 C3.06666667,0.533333333 0.6,4.06666667 0.6,6.93333333 C0.6,8.73333331 1.26666667,10.2666667 2.73333333,10.8666667 C3,10.9333333 3.2,10.8666667 3.26666667,10.6 C3.33333333,10.4 3.4,9.93333331 3.46666667,9.8 C3.53333333,9.53333331 3.53333333,9.46666669 3.33333333,9.2 C2.93333333,8.73333331 2.66666667,8.06666669 2.66666667,7.2 C2.66666667,4.6 4.6,2.26666667 7.73333331,2.26666667 C10.4666667,2.26666667 12,3.93333333 12,6.2 C12,9.2 10.6666667,11.6666667 8.73333331,11.6666667 C7.66666669,11.6666667 6.86666667,10.8 7.13333333,9.66666669 C7.46666669,8.33333331 8.06666669,6.93333333 8.06666669,6 C8.06666669,5.13333333 7.6,4.46666667 6.66666667,4.46666667 C5.53333333,4.46666667 4.66666667,5.6 4.66666667,7.13333333 C4.66666667,8.13333331 5,8.73333331 5,8.73333331 C5,8.73333331 3.86666667,13.5333333 3.66666667,14.3333333 C3.26666667,16 3.6,18.0666667 3.66666667,18.2666667 C3.66666667,18.4 3.86666667,18.4 3.93333333,18.3333333 C4.06666667,18.2 5.33333333,16.6 5.8,14.9333333 C5.93333333,14.4666667 6.53333333,12.1333333 6.53333333,12.1333333 C6.86666667,12.8 7.93333331,13.4 9.06666669,13.4 C12.4,13.4 14.6,10.4 14.6,6.33333333 C14.4666667,3.4 11.8666667,0.533333333 7.93333331,0.533333333 L7.93333331,0.533333333 L7.93333331,0.533333333 Z" fill="#676767"></path>
                                        <path d="M7.6,0.2 C2.73333333,0.2 0.266666667,3.73333333 0.266666667,6.6 C0.266666667,8.4 0.933333331,9.93333331 2.4,10.5333333 C2.66666667,10.6 2.86666667,10.5333333 2.93333333,10.2666667 C3,10.0666667 3.06666667,9.6 3.13333333,9.46666669 C3.2,9.2 3.2,9.13333331 3,8.86666669 C2.6,8.4 2.33333333,7.73333331 2.33333333,6.86666667 C2.33333333,4.26666667 4.26666667,1.93333333 7.4,1.93333333 C10.1333333,1.93333333 11.6666667,3.6 11.6666667,5.86666667 C11.6666667,8.86666669 10.3333333,11.3333333 8.4,11.3333333 C7.33333331,11.3333333 6.53333333,10.4666667 6.8,9.33333331 C7.13333333,8 7.73333331,6.6 7.73333331,5.66666667 C7.73333331,4.8 7.26666667,4.13333333 6.33333333,4.13333333 C5.2,4.13333333 4.33333333,5.26666667 4.33333333,6.8 C4.33333333,7.8 4.66666667,8.4 4.66666667,8.4 C4.66666667,8.4 3.53333333,13.2 3.33333333,14 C2.93333333,15.6666667 3.26666667,17.7333333 3.33333333,17.9333333 C3.33333333,18.0666667 3.53333333,18.0666667 3.6,18 C3.73333333,17.8666667 5,16.2666667 5.46666667,14.6 C5.6,14.1333333 6.2,11.8 6.2,11.8 C6.53333333,12.4666667 7.6,13.0666667 8.73333331,13.0666667 C12.0666667,13.0666667 14.2666667,10.0666667 14.2666667,6 C14.0666667,3.06666667 11.5333333,0.2 7.6,0.2 L7.6,0.2 L7.6,0.2 Z" fill="#FFFFFF"></path>
                                    </g>
                                </g>
                            </g>
                        </g>
                        <g id="twitter-01" transform="translate(0.000000, 192.000000)">
                            <g id="Capa_1">
                                <g id="Group">
                                    <path d="M31.2,31.8666667 L0.8,31.8666667 C0.4,31.8666667 0.133333333,31.6 0.133333333,31.2 L0.133333333,0.8 C0.133333333,0.4 0.4,0.133333333 0.8,0.133333333 L31.2,0.133333333 C31.6,0.133333333 31.8666667,0.4 31.8666667,0.8 L31.8666667,31.2 C31.8666667,31.6 31.6,31.8666667 31.2,31.8666667 L31.2,31.8666667 L31.2,31.8666667 Z" id="Shape" fill="#E72369"></path>
                                    <g id="Shape" transform="translate(6.666667, 8.666667)">
                                        <path d="M18.3333333,2 C17.6666667,2.26666667 17,2.46666667 16.2666667,2.6 C17,2.13333333 17.6,1.46666667 17.8666667,0.6 C17.2,1 16.4,1.33333333 15.6,1.46666667 C14.9333333,0.733333331 14,0.333333333 12.9333333,0.333333333 C10.9333333,0.333333333 9.33333331,1.93333333 9.33333331,3.93333333 C9.33333331,4.2 9.33333331,4.46666667 9.4,4.73333333 C6.4,4.6 3.73333333,3.13333333 1.93333333,0.933333331 C1.6,1.46666667 1.46666667,2.06666667 1.46666667,2.73333333 C1.46666667,4 2.13333333,5.06666667 3.06666667,5.73333333 C2.46666667,5.73333333 1.93333333,5.53333333 1.4,5.26666667 C1.4,5.26666667 1.4,5.26666667 1.4,5.33333333 C1.4,7.06666667 2.66666667,8.53333331 4.33333333,8.86666669 C4,8.93333331 3.73333333,9 3.4,9 C3.13333333,9 2.93333333,9 2.73333333,8.93333331 C3.2,10.4 4.53333333,11.4 6.13333333,11.4666667 C4.86666667,12.4666667 3.33333333,13 1.66666667,13 C1.4,13 1.06666667,13 0.8,12.9333333 C2.4,13.9333333 4.33333333,14.5333333 6.33333333,14.5333333 C13,14.5333333 16.6,9 16.6,4.26666667 L16.6,3.8 C17.2,3.4 17.8,2.73333333 18.3333333,2 L18.3333333,2 L18.3333333,2 Z" fill="#676767"></path>
                                        <path d="M18,1.73333333 C17.3333333,2 16.6666667,2.2 15.9333333,2.33333333 C16.6666667,1.86666667 17.2666667,1.2 17.5333333,0.333333333 C16.8666667,0.733333331 16.0666667,1.06666667 15.2666667,1.2 C14.6,0.466666667 13.6666667,0.0666666667 12.6,0.0666666667 C10.6,0.0666666667 9,1.66666667 9,3.66666667 C9,3.93333333 9,4.2 9.06666669,4.46666667 C6,4.26666667 3.33333333,2.86666667 1.6,0.666666667 C1.26666667,1.2 1.13333333,1.8 1.13333333,2.46666667 C1.13333333,3.73333333 1.8,4.8 2.73333333,5.46666667 C2.13333333,5.46666667 1.6,5.26666667 1.06666667,5 C1.06666667,5 1.06666667,5 1.06666667,5.06666667 C1.06666667,6.8 2.33333333,8.26666669 4,8.6 C3.66666667,8.66666669 3.4,8.73333331 3.06666667,8.73333331 C2.8,8.73333331 2.6,8.73333331 2.4,8.66666669 C2.86666667,10.1333333 4.2,11.1333333 5.8,11.2 C4.53333333,12.2 3,12.7333333 1.33333333,12.7333333 C1.06666667,12.7333333 0.733333331,12.7333333 0.466666667,12.6666667 C2.06666667,13.6666667 4,14.2666667 6,14.2666667 C12.6666667,14.2666667 16.2666667,8.73333331 16.2666667,4 L16.2666667,3.53333333 C16.8666667,3.06666667 17.5333333,2.4 18,1.73333333 L18,1.73333333 L18,1.73333333 Z" fill="#FFFFFF"></path>
                                    </g>
                                </g>
                            </g>
                        </g>
                        <g id="youtube-01" transform="translate(0.000000, 224.000000)">
                            <g id="Capa_1">
                                <g id="Group">
                                    <path d="M31.2,31.8666667 L0.8,31.8666667 C0.4,31.8666667 0.133333333,31.6 0.133333333,31.2 L0.133333333,0.8 C0.133333333,0.4 0.4,0.133333333 0.8,0.133333333 L31.2,0.133333333 C31.6,0.133333333 31.8666667,0.4 31.8666667,0.8 L31.8666667,31.2 C31.8666667,31.6 31.6,31.8666667 31.2,31.8666667 L31.2,31.8666667 L31.2,31.8666667 Z" id="Shape" fill="#E72369"></path>
                                    <g id="Shape" transform="translate(5.333333, 8.666667)">
                                        <path d="M20.6,3.8 C20.6,2.26666667 19.3333333,1 17.7333333,1 C15.6,0.933333331 13.4,0.866666669 11.2,0.866666669 L10.8666667,0.866666669 L10.5333333,0.866666669 C8.33333331,0.866666669 6.13333333,0.933333331 4,1 C2.4,1 1.13333333,2.26666667 1.13333333,3.8 C1.06666667,5 1,6.26666667 1,7.46666669 C1,8.73333331 1.06666667,9.93333331 1.13333333,11.2 C1.13333333,12.7333333 2.4,14 4,14 C6.26666667,14.0666667 8.53333331,14.1333333 10.8666667,14.1333333 C13.2,14.1333333 15.5333333,14.0666667 17.7333333,14 C19.3333333,14 20.6,12.7333333 20.6,11.2 C20.6666667,9.93333331 20.7333333,8.73333331 20.7333333,7.46666669 C20.7333333,6.26666667 20.6666667,5.06666667 20.6,3.8 L20.6,3.8 L20.6,3.8 Z M13.8666667,8.13333331 L8.4,11.2666667 C7.8,11.6 7.33333331,11.3333333 7.33333331,10.6666667 L7.33333331,4.4 C7.33333331,3.73333333 7.8,3.46666667 8.4,3.8 L13.8666667,6.93333333 C14.4666667,7.2 14.4666667,7.8 13.8666667,8.13333331 L13.8666667,8.13333331 L13.8666667,8.13333331 Z" fill="#676767"></path>
                                        <path d="M20.2666667,3.46666667 C20.2666667,1.93333333 19,0.666666667 17.4,0.666666667 C15.2666667,0.6 13.0666667,0.533333333 10.8666667,0.533333333 L10.5333333,0.533333333 L10.2,0.533333333 C8,0.533333333 5.8,0.6 3.66666667,0.666666667 C2.06666667,0.666666667 0.8,1.93333333 0.8,3.46666667 C0.666666667,4.66666667 0.6,5.93333333 0.6,7.13333333 C0.6,8.4 0.666666667,9.6 0.733333331,10.8666667 C0.733333331,12.4 2,13.6666667 3.6,13.6666667 C5.86666667,13.7333333 8.13333331,13.8 10.4666667,13.8 C12.8,13.8 15.1333333,13.7333333 17.3333333,13.6666667 C18.9333333,13.6666667 20.2,12.4 20.2,10.8666667 C20.2666667,9.6 20.3333333,8.4 20.3333333,7.13333333 C20.4,5.93333333 20.3333333,4.66666667 20.2666667,3.46666667 L20.2666667,3.46666667 L20.2666667,3.46666667 Z M13.5333333,7.73333331 L8.06666669,10.8666667 C7.46666669,11.2 7,10.9333333 7,10.2666667 L7,4 C7,3.33333333 7.46666669,3.06666667 8.06666669,3.4 L13.5333333,6.53333333 C14.0666667,6.86666667 14.0666667,7.4 13.5333333,7.73333331 L13.5333333,7.73333331 L13.5333333,7.73333331 Z" fill="#FFFFFF"></path>
                                    </g>
                                </g>
                            </g>
                        </g>
                    </g>
                </g>
            </g>
        </g>
    </g>
</svg>