<?xml version="1.0" encoding="utf-8"?>
<!-- Generator: Adobe Illustrator 18.1.1, SVG Export Plug-In . SVG Version: 6.00 Build 0)  -->
<svg version="1.1" id="Capa_1" xmlns="http://www.w3.org/2000/svg" xmlns:xlink="http://www.w3.org/1999/xlink" x="0px" y="0px"
	 viewBox="0 0 48 48" enable-background="new 0 0 48 48" xml:space="preserve">
<path fill="none" stroke="#020203" stroke-width="7.5" stroke-linecap="round" stroke-linejoin="round" stroke-miterlimit="22.9256" d="
	M554.6,122.5h-76.3c-6.8,0-10.4,4.2-10.4,11v87.8h125.5c6.7,0,10-4,10-10.7v-88.1h-19.1"/>
<g>
	<path fill="#020203" d="M27.6,42.4c-0.6,0-1.1-0.2-1.5-0.6L4.6,23c-0.5-0.5-0.8-1.2-0.8-1.9c0-0.7,0.4-1.4,1-1.8L24,6
		c1.1-0.7,2.5-0.5,3.2,0.6s0.5,2.5-0.6,3.2L9.9,21.5L25.2,35V21.3c0-1.3,1-2.3,2.3-2.3h15.3c1.3,0,2.3,1,2.3,2.3s-1,2.3-2.3,2.3h-13
		v16.5c0,0.9-0.5,1.7-1.4,2.1C28.2,42.4,27.9,42.4,27.6,42.4z"/>
</g>
<g id="Devoluciones">
</g>
</svg>
