<?xml version="1.0" encoding="utf-8"?>
<!-- Generator: Adobe Illustrator 18.1.1, SVG Export Plug-In . SVG Version: 6.00 Build 0)  -->
<svg version="1.1" id="Capa_1" xmlns="http://www.w3.org/2000/svg" xmlns:xlink="http://www.w3.org/1999/xlink" x="0px" y="0px"
	 viewBox="0 0 48 48" enable-background="new 0 0 48 48" xml:space="preserve">
<path fill="none" stroke="#020203" stroke-width="7.5" stroke-linecap="round" stroke-linejoin="round" stroke-miterlimit="22.9256" d="
	M554.6,122.5h-76.3c-6.8,0-10.4,4.2-10.4,11v87.8h125.5c6.7,0,10-4,10-10.7v-88.1h-19.1"/>
<g>
	<path fill="#020203" d="M20.5,42.2c-0.9-0.4-1.4-1.2-1.4-2.1V23.6h-13c-1.3,0-2.3-1-2.3-2.3s1-2.3,2.3-2.3h15.3
		c1.3,0,2.3,1,2.3,2.3V35L39,21.5L22.3,9.8c-1.1-0.7-1.3-2.1-0.6-3.2s2.1-1.3,3.2-0.6l19.2,13.3c0.6,0.4,1,1.1,1,1.8
		c0,0.7-0.3,1.4-0.8,1.9L22.8,41.8c-0.4,0.4-0.9,0.6-1.5,0.6C21,42.4,20.7,42.4,20.5,42.2z"/>
</g>
<g id="Devoluciones">
</g>
</svg>
