<?xml version="1.0" encoding="utf-8"?>
<!-- Generator: Adobe Illustrator 18.1.1, SVG Export Plug-In . SVG Version: 6.00 Build 0)  -->
<svg version="1.1" id="Layer_1" xmlns="http://www.w3.org/2000/svg" xmlns:xlink="http://www.w3.org/1999/xlink" x="0px" y="0px"
	 viewBox="0 0 792 612" enable-background="new 0 0 792 612" xml:space="preserve">
<path fill="#F8F7F9" d="M746.9,1.3H45.1c-26,0-45.3,21.5-45.3,45.3c0,23.8,21.5,45.3,45.3,45.3h701.9c26,0,45.3-21.5,45.3-45.3
	S772.5,1.3,746.9,1.3z"/>
<path fill="#F8F7F9" d="M746.9,261.8H45.1c-26,0-45.3,21.5-45.3,45.3c0,26,21.5,45.3,45.3,45.3h701.9c26,0,45.3-21.5,45.3-45.3
	C792.2,281.1,772.5,261.8,746.9,261.8z"/>
<path fill="#F8F7F9" d="M746.9,520.1H45.1c-26,0-45.3,21.5-45.3,45.3c0,23.8,21.5,45.3,45.3,45.3h701.9c26,0,45.3-21.5,45.3-45.3
	C792.2,541.7,772.5,520.1,746.9,520.1z"/>
</svg>
