<svg xmlns:dc="http://purl.org/dc/elements/1.1/" xmlns:cc="http://creativecommons.org/ns#" xmlns:rdf="http://www.w3.org/1999/02/22-rdf-syntax-ns#" xmlns:svg="http://www.w3.org/2000/svg" xmlns="http://www.w3.org/2000/svg" xmlns:sodipodi="http://sodipodi.sourceforge.net/DTD/sodipodi-0.dtd" xmlns:inkscape="http://www.inkscape.org/namespaces/inkscape" version="1.1" id="Capa_1" x="0px" y="0px" viewBox="0 0 309.89151 309.6" xml:space="preserve" inkscape:version="0.91 r13725" sodipodi:docname="icon-user-latam.svg" width="309.89151" height="309.60001">
  <metadata id="metadata11">
    <rdf:RDF>
      <cc:Work rdf:about="">
        <dc:format>
          image/svg+xml
        </dc:format>
        <dc:type rdf:resource="http://purl.org/dc/dcmitype/StillImage"/>
        <dc:title/>
      </cc:Work>
    </rdf:RDF>
  </metadata>
  <defs id="defs9"/>
  <sodipodi:namedview pagecolor="#ffffff" bordercolor="#666666" borderopacity="1" objecttolerance="10" gridtolerance="10" guidetolerance="10" inkscape:pageopacity="0" inkscape:pageshadow="2" inkscape:window-width="1920" inkscape:window-height="1058" id="namedview7" showgrid="false" fit-margin-top="2" fit-margin-left="2" fit-margin-right="2" fit-margin-bottom="2" inkscape:zoom="1.9868828" inkscape:cx="223.071" inkscape:cy="113.81007" inkscape:window-x="-8" inkscape:window-y="-8" inkscape:window-maximized="1" inkscape:current-layer="Capa_1"/>
  <g id="g3" transform="translate(-69.8,-60.5)" fill="#fff">
    <path d="m224.9 368.1c-20.1 0-39.5-3.8-58.3-11.5-18.8-7.7-35.5-18.7-50.2-33C102.1 309.3 91.1 292.7 83.4 273.9 75.6 255 71.8 235.4 71.8 215c0-20.8 3.8-40.4 11.5-58.8 7.7-18.4 18.7-34.8 33-49.2 14.3-14.3 30.7-25.3 49.2-33 18.4-7.7 38.1-11.5 58.8-11.5 20.4 0 40 3.9 58.8 11.5 18.8 7.7 35.4 18.7 49.7 33 24 24 38.4 52.6 43.2 85.7 4.8 33.1-0.6 64.6-16.4 94.3-1.1 2.1-2.8 3.6-5.1 4.3-2.3 0.7-4.4 0.5-6.2-0.5-2.1-1.1-3.6-2.8-4.3-5.1-0.7-2.3-0.5-4.4 0.5-6.2 9.7-17.9 15-36.6 16.1-56.1 1.1-19.5-1.8-38.3-8.6-56.4-6.8-18.1-17.2-34.1-31.2-48.1C307.9 106 293.1 96.2 276.5 89.4 259.8 82.6 242.4 79.2 224.1 79.2c-17.9 0-35.2 3.4-51.8 10.2-16.7 6.8-31.4 16.7-44.3 29.5-12.9 12.8-22.7 27.7-29.5 44.3-6.8 16.7-10.2 33.9-10.2 51.8 0 18.3 3.4 35.7 10.2 52.4 6.8 16.7 16.7 31.4 29.5 44.3 21.1 21.1 46.6 33.8 76.6 38.1 29.9 4.3 58.1-0.7 84.6-15 2.1-1.1 4.3-1.2 6.4-0.5 2.1 0.7 3.8 2 4.8 3.8 1.4 2.1 1.8 4.3 1.1 6.4-0.7 2.1-2.1 3.8-4.3 4.8-22.7 12.5-46.9 18.8-72.3 18.8zm42.4-169.8c7.9-2.9 14.4-2.6 19.6 0.8 5.2 3.4 7.8 8.9 7.8 16.4l0 67.2c0 2.1-0.8 4-2.4 5.6-1.6 1.6-3.7 2.4-6.2 2.4-2.1 0-4-0.8-5.6-2.4-1.6-1.6-2.4-3.5-2.4-5.6l0-65.5c0-3.6-2.3-4.5-7-2.7l-99.9 34.9 0 33.3c0 2.5-0.8 4.6-2.4 6.2-1.6 1.6-3.7 2.4-6.2 2.4-2.1 0-4-0.8-5.6-2.4-1.6-1.6-2.4-3.7-2.4-6.2l0-39.2c0-3.6 1.8-6.3 5.4-8.1l107.3-37.1zm-53.7 0c-10 0-18.5-3.6-25.5-10.7-7-7.2-10.5-15.8-10.5-25.8 0-10 3.5-18.5 10.5-25.5 7-7 15.5-10.5 25.5-10.5 10 0 18.6 3.5 25.8 10.5 7.2 7 10.7 15.5 10.7 25.5 0 10-3.6 18.6-10.7 25.8-7.2 7.2-15.8 10.7-25.8 10.7zm0-55.8c-5.4 0-9.9 1.9-13.7 5.6-3.8 3.8-5.6 8.3-5.6 13.7 0 5.4 1.9 10 5.6 14 3.8 3.9 8.3 5.9 13.7 5.9 5.4 0 10-2 14-5.9 3.9-3.9 5.9-8.6 5.9-14 0-5.4-2-9.9-5.9-13.7-4-3.8-8.6-5.6-14-5.6z" id="path5" inkscape:connector-curvature="0" fill="#fff"/>
  </g>
</svg>
