<?xml version="1.0" encoding="utf-8"?>
<!-- Generator: Adobe Illustrator 18.1.1, SVG Export Plug-In . SVG Version: 6.00 Build 0)  -->
<svg version="1.0" xmlns="http://www.w3.org/2000/svg" xmlns:xlink="http://www.w3.org/1999/xlink" x="0px" y="0px"
	 viewBox="0 0 93 21" enable-background="new 0 0 93 21" xml:space="preserve">
<g id="Layer_2">
	<g>
		<path fill="#FFFFFF" d="M42.8,15.6h3.3L41,5.8c-0.3-0.5-0.5-0.7-1.2-0.7H37l-5.4,10.4h3.3l1-1.9h6.1L42.8,15.6z M69.8,15.6h3.3
			l-5.1-9.7c-0.3-0.5-0.5-0.7-1.1-0.7h-2.8l-5.4,10.4h3.3l1-1.9h6.1L69.8,15.6z M81.4,13c0.1,0.4,0.6,0.6,1.1,0.6h3.1l2.3-6.1l2.2,8
			H93l-2.4-9.2c-0.2-0.9-0.8-1.2-1.6-1.2h-3l-2.2,6.1L82,6.1c-0.2-0.7-0.7-0.9-1.3-0.9h-3.4l-2.8,10.4h3l2.1-8L81.4,13z M67.8,11.6
			h-4l2-4.2L67.8,11.6z M40.8,11.6h-4l2-4.2L40.8,11.6z M29.3,15.6l1.2-2.4h-7.2v-8h-3.1v10.4H29.3z M50.8,15.6h3v-8L59,7.2V5.2
			H45.6v2.1l5.2,0.3V15.6z"/>
		<g>
			<path fill="#ED1650" d="M10.5,4.7L4.2,2.6c-0.6-0.2-1-0.6-1-1.2V0.2c0-0.3,0.2-0.2,0.5-0.1c2.1,0.7,8.8,3,9.3,3.2
				c0.1,0,0.1,0.1,0.2,0.1c0.2,0.1,0,0.4-0.7,0.6C12.4,4.1,11.6,4.3,10.5,4.7 M10.5,8.5c1.1-0.4,1.9-0.7,2-0.7
				c0.8-0.3,0.9-0.5,0.6-0.7c0,0,0,0,0,0c0,0-0.1,0-0.1,0c-0.1,0-0.6-0.2-1.4-0.5c-0.9,0.3-2.1,0.7-3.3,1.1L10.5,8.5z M0,8
				c0,0.3,0.1,0.3,0.4,0.2C0.6,8.2,0.8,8.1,1.1,8c0.1,0,0.1,0,0.2-0.1l0,0C1.8,7.8,2.4,7.5,3,7.3C1.9,6.9,0.9,6.6,0.4,6.4
				C0.1,6.3,0,6.4,0,6.6v1.1V8z M1,5.1l4.1,1.4c1.1-0.4,2.2-0.8,3.3-1.1C5.3,4.4,1.7,3.1,0.5,2.7C0.2,2.6,0,2.5,0,2.8v1.1
				C0,4.6,0.4,4.9,1,5.1"/>
			<path fill="#FFFFFF" d="M13,9.9l-9.8,3.4V11c0,0,8.9-3.1,9.4-3.3c0.8-0.3,0.9-0.5,0.6-0.7c0.4,0.1,0.3,0.2,0.3,1.2
				C13.5,9.3,13.4,9.7,13,9.9 M5.4,18.6c0-0.5,0.1-0.9-0.4-0.7l-1.9,0.7v2.3l1.8-0.6c0.5-0.2,0.5-0.5,0.5-1V18.6z M8.4,13.8
				c0-0.5,0.1-0.9-0.4-0.7l-4.8,1.7V17l4.7-1.6c0.5-0.2,0.5-0.5,0.5-1V13.8z M13.1,3.3c0.4,0.1,0.2,0.4-0.6,0.7
				C12.1,4.2,4.2,6.9,1.3,7.9l0,0C1.2,7.9,1.2,8,1.1,8C0.8,8.1,0.6,8.2,0.5,8.2C0.1,8.3,0,8.3,0,8c0,0.2,0,0.5,0.3,0.6l2.6,0.9
				c0,0,0.2,0.1,0.4,0C3.5,9.4,13,6.1,13,6.1c0.5-0.2,0.5-0.5,0.5-1.6C13.5,3.5,13.5,3.5,13.1,3.3"/>
		</g>
	</g>
</g>
<g id="Layer_3">
</g>
<g id="Layer_4">
</g>
</svg>
