<?xml version="1.0" encoding="utf-8"?>
<!-- Generator: Adobe Illustrator 18.1.1, SVG Export Plug-In . SVG Version: 6.00 Build 0)  -->
<svg version="1.1" id="oneworld" xmlns="http://www.w3.org/2000/svg" xmlns:xlink="http://www.w3.org/1999/xlink" x="0px" y="0px"
	 viewBox="0 0 48 48" enable-background="new 0 0 48 48" xml:space="preserve">
<path fill="#FFFFFF" d="M0,24c0,13.2,10.8,24,24,24s24-10.8,24-24S37.2,0,24,0S0,10.8,0,24z M2.4,24C2.4,12.1,12.1,2.4,24,2.4
	S45.6,12.1,45.6,24S35.9,45.6,24,45.6C12.1,45.5,2.4,35.9,2.4,24z"/>
<circle fill="#36368C" cx="24" cy="24" r="22.8"/>
<g>
	<path fill="#FFFFFF" d="M5.1,24.3c0-0.6,0.2-1.4,1-1.4c0.8,0,1,0.8,1,1.4c0,0.6-0.2,1.4-1,1.4C5.3,25.7,5.1,25,5.1,24.3z M3.5,24.3
		c0,1.5,1.1,2.7,2.6,2.7s2.7-1.1,2.7-2.7c0-1.5-1.1-2.7-2.7-2.7S3.5,22.8,3.5,24.3z"/>
	<path fill="#FFFFFF" d="M9.7,21.8h1.6v0.7h0c0.3-0.5,1-0.8,1.6-0.8c1.7,0,1.8,1.2,1.8,1.9v3.2H13v-2.4c0-0.7,0.1-1.4-0.8-1.4
		c-0.6,0-0.9,0.5-0.9,1.1v2.7H9.7V21.8z"/>
	<path fill="#FFFFFF" d="M17.3,23.8c0.1-0.6,0.5-1,1.1-1c0.5,0,0.9,0.5,1,1H17.3z M21,24.7c0.1-1.7-0.8-3.1-2.6-3.1
		c-1.5,0-2.7,1.1-2.7,2.7c0,1.7,1.1,2.7,2.7,2.7c1.1,0,2.2-0.5,2.5-1.7h-1.5c-0.2,0.4-0.5,0.5-0.9,0.5c-0.7,0-1.1-0.4-1.1-1.1H21z"
		/>
	<g>
		<path fill="#FFFFFF" d="M21.3,21.8H22l1.3,4.3h0l1.2-4.3h0.7l1.2,4.3h0l1.3-4.3h0.7l-1.6,5h-0.7l-1.2-4.2h0l-1.2,4.2h-0.7
			L21.3,21.8z"/>
		<path fill="#FFFFFF" d="M33.6,24.4c0,1.4-0.8,2.7-2.4,2.7c-1.5,0-2.4-1.2-2.4-2.7c0-1.4,0.8-2.7,2.4-2.7S33.6,22.9,33.6,24.4z
			 M29.4,24.4c0,1.1,0.6,2.2,1.8,2.2s1.8-1.1,1.8-2.2c0-1.1-0.6-2.2-1.8-2.2C30,22.2,29.4,23.3,29.4,24.4z"/>
		<path fill="#FFFFFF" d="M34.5,21.8h0.6V23h0c0.3-0.8,1-1.3,1.9-1.3v0.6c-1.1-0.1-1.9,0.8-1.9,1.8v2.7h-0.6V21.8z"/>
		<path fill="#FFFFFF" d="M37.7,19.9h0.6v7h-0.6V19.9z"/>
		<path fill="#FFFFFF" d="M43.9,26.9h-0.6v-1h0c-0.3,0.7-1.1,1.1-1.8,1.1c-1.5,0-2.3-1.2-2.3-2.7s0.7-2.7,2.3-2.7
			c0.8,0,1.5,0.4,1.8,1.1h0v-2.9h0.6L43.9,26.9L43.9,26.9z M41.5,26.5c1.3,0,1.8-1.1,1.8-2.2c0-1-0.5-2.2-1.8-2.2
			c-1.2,0-1.7,1.1-1.7,2.2C39.9,25.4,40.3,26.5,41.5,26.5z"/>
	</g>
</g>
</svg>
